<?xml version="1.0" ?><svg id="Layer_1" style="enable-background:new 0 0 512 512;" version="1.1" viewBox="0 0 512 512" xml:space="preserve" xmlns="http://www.w3.org/2000/svg" xmlns:xlink="http://www.w3.org/1999/xlink"><style type="text/css">
	.st0{fill-rule:evenodd;clip-rule:evenodd;fill:#DFDFE0;}
	.st1{fill:#F58220;}
	.st2{fill:url(#SVGID_1_);}
	.st3{fill:#081A23;}
	.st4{fill:#231F20;}
</style><g><path class="st0" d="M489.2,94.5H21.9c-9.1,0-14.8,1.4-17.9,4.3c-2.7,3.3-4,8.7-4,16.7v29.9v24.1v172.3V367v28.8   c0,14.3,7.4,21.7,21.9,21.7h467.3c15.2,0,22.8-7.4,22.8-21.7V367v-25.2V169.4v-24.1v-29.9C512,101.3,504.4,94.5,489.2,94.5z"/><path class="st1" d="M489.2,417.5c15.2,0,22.8-7.4,22.8-21.7V367v-25.2v-66.1c0,0-138.9,98-393.2,141.9H489.2z"/><g><radialGradient cx="233.0335" cy="-303.6657" gradientTransform="matrix(2.7367 0 0 2.7367 -374.5642 1029.0552)" gradientUnits="userSpaceOnUse" id="SVGID_1_" r="10.6439"><stop offset="5.618000e-03" style="stop-color:#FFEEE1"/><stop offset="9.664717e-02" style="stop-color:#FFEAD8"/><stop offset="0.2452" style="stop-color:#FEDDC2"/><stop offset="0.4329" style="stop-color:#FCCA9F"/><stop offset="0.6522" style="stop-color:#F9AF72"/><stop offset="0.8954" style="stop-color:#F68F39"/><stop offset="1" style="stop-color:#F48220"/></radialGradient><path class="st2" d="M263.2,169.2c-16.3,0-29.5,12.7-29.5,28.4c0,16.7,12.6,29.2,29.5,29.2c16.4,0,29.4-12.6,29.4-28.8    C292.6,181.9,279.7,169.2,263.2,169.2z"/><path class="st3" d="M95.8,170.2H79.9v55.3h15.8c8.4,0,14.4-2,19.7-6.4c6.3-5.2,10-13.1,10-21.2    C125.4,181.6,113.2,170.2,95.8,170.2z M108.4,211.8c-3.4,3.1-7.8,4.4-14.8,4.4h-2.9v-36.6h2.9c7,0,11.2,1.2,14.8,4.5    c3.7,3.3,6,8.5,6,13.8C114.3,203.2,112.1,208.5,108.4,211.8z"/><rect class="st3" height="55.3" width="10.8" x="130.4" y="170.2"/><path class="st3" d="M167.6,191.5c-6.5-2.4-8.4-4-8.4-7c0-3.5,3.4-6.1,8-6.1c3.2,0,5.9,1.3,8.7,4.5l5.6-7.4    c-4.6-4.1-10.2-6.1-16.3-6.1c-9.8,0-17.2,6.8-17.2,15.8c0,7.6,3.5,11.5,13.6,15.2c4.2,1.5,6.4,2.5,7.5,3.2    c2.2,1.4,3.2,3.4,3.2,5.7c0,4.5-3.6,7.8-8.4,7.8c-5.1,0-9.3-2.6-11.8-7.4l-7,6.7c5,7.3,10.9,10.5,19.2,10.5    c11.2,0,19.1-7.5,19.1-18.2C183.5,199.9,179.9,196,167.6,191.5z"/><path class="st3" d="M186.9,197.9c0,16.3,12.8,28.9,29.2,28.9c4.6,0,8.6-0.9,13.5-3.2v-12.7c-4.3,4.3-8.1,6.1-13,6.1    c-10.9,0-18.6-7.9-18.6-19.1c0-10.6,8-19,18.1-19c5.1,0,9,1.8,13.5,6.2v-12.7c-4.7-2.4-8.6-3.4-13.3-3.4    C200,169,186.9,181.9,186.9,197.9z"/><polygon class="st3" points="317,207.4 302.3,170.2 290.5,170.2 314,227 319.8,227 343.7,170.2 332,170.2   "/><polygon class="st3" points="348.6,225.6 379.2,225.6 379.2,216.2 359.4,216.2 359.4,201.3 378.4,201.3 378.4,191.9 359.4,191.9     359.4,179.6 379.2,179.6 379.2,170.2 348.6,170.2   "/><path class="st3" d="M421.9,186.6c0-10.4-7.1-16.3-19.6-16.3h-16v55.3h10.8v-22.2h1.4l14.9,22.2h13.3l-17.4-23.3    C417.4,200.6,421.9,195,421.9,186.6z M400.2,195.7h-3.1v-16.8h3.3c6.7,0,10.4,2.8,10.4,8.2C410.8,192.7,407.1,195.7,400.2,195.7z"/><path class="st4" d="M429.5,174.4c0-1-0.6-1.5-1.8-1.5h-1.6v4.9h1.2v-1.9l1.4,1.9h1.4l-1.6-2C429.1,175.5,429.5,175,429.5,174.4z     M427.5,175h-0.2v-1.3h0.2c0.6,0,0.9,0.2,0.9,0.6C428.3,174.8,428,175,427.5,175z"/><path class="st4" d="M427.9,171c-2.4,0-4.3,1.9-4.3,4.3c0,2.4,1.9,4.3,4.3,4.3c2.3,0,4.2-1.9,4.2-4.3    C432.1,173,430.2,171,427.9,171z M427.9,178.8c-1.9,0-3.4-1.6-3.4-3.5c0-1.9,1.5-3.5,3.4-3.5c1.8,0,3.4,1.6,3.4,3.5    C431.2,177.2,429.7,178.8,427.9,178.8z"/><path class="st4" d="M176.6,240.1l14.4,15.1v-14.3h2.1v19.3l-14.4-15.1v14.3h-2.1V240.1z"/><path class="st4" d="M176.4,240.1v19.5h2.4c0,0,0-13.1,0-14c0.6,0.7,14.4,15.1,14.4,15.1v-20h-2.4c0,0,0,13.1,0,14    c-0.6-0.7-14.4-15.1-14.4-15.1V240.1z M176.8,240.6c0.6,0.7,14.4,15.1,14.4,15.1s0-14.3,0-14.6c0.3,0,1.4,0,1.7,0    c0,0.4,0,17.8,0,18.7c-0.6-0.7-14.4-15.1-14.4-15.1s0,14.2,0,14.5c-0.3,0-1.4,0-1.7,0C176.8,258.8,176.8,241.5,176.8,240.6z"/><path class="st4" d="M203.1,240.9h9.6v1.9h-7.5v5.5h7.3v1.9h-7.3v7.3h7.5v1.9h-9.6V240.9z"/><path class="st4" d="M212.7,240.7h-9.8v18.9h10v-2.3c0,0-7.2,0-7.5,0c0-0.4,0-6.5,0-6.9c0.4,0,7.3,0,7.3,0v-2.3c0,0-6.9,0-7.3,0    c0-0.4,0-4.8,0-5.1c0.4,0,7.5,0,7.5,0v-2.3H212.7z M212.5,241.1c0,0.3,0,1.3,0,1.5c-0.4,0-7.5,0-7.5,0v5.9c0,0,7,0,7.3,0    c0,0.3,0,1.2,0,1.5c-0.4,0-7.3,0-7.3,0v7.6c0,0,7.2,0,7.5,0c0,0.3,0,1.3,0,1.5c-0.4,0-8.8,0-9.2,0c0-0.4,0-17.7,0-18.1    C203.6,241.1,212.1,241.1,212.5,241.1z"/><path class="st4" d="M227.2,259.4h-2.1v-16.6h-4.5v-1.9h11v1.9h-4.5V259.4z"/><path class="st4" d="M231.8,240.7h-11.2v2.3c0,0,4.1,0,4.5,0c0,0.4,0,16.6,0,16.6h2.4c0,0,0-16.2,0-16.6c0.4,0,4.5,0,4.5,0v-2.3    H231.8z M231.6,241.1c0,0.3,0,1.3,0,1.5c-0.3,0-4.5,0-4.5,0s0,16.2,0,16.6c-0.3,0-1.4,0-1.7,0c0-0.4,0-16.6,0-16.6s-4.1,0-4.5,0    c0-0.3,0-1.3,0-1.5C221.3,241.1,231.2,241.1,231.6,241.1z"/><path class="st4" d="M245.5,254.8l6-14.8l6,14.8l4.9-13.9h2.2l-7.1,19.5l-6-14.9l-6,14.9l-7.1-19.5h2.2L245.5,254.8z"/><path class="st4" d="M251.4,239.9c0,0-5.5,13.5-5.8,14.4c-0.3-0.9-4.7-13.5-4.7-13.5h-2.6l7.4,20.2c0,0,5.7-14.1,6-14.9    c0.3,0.9,6,14.9,6,14.9l7.4-20.2h-2.6c0,0-4.4,12.6-4.7,13.5c-0.4-0.9-6-14.8-6-14.8L251.4,239.9z M245.7,254.8    c0,0,5.5-13.6,5.8-14.4c0.3,0.8,6,14.9,6,14.9s4.9-14,5-14.2c0.2,0,1.4,0,1.8,0c-0.2,0.5-6.5,17.8-6.8,18.7    c-0.4-0.9-6-14.9-6-14.9s-5.6,14-6,14.9c-0.3-0.9-6.6-18.2-6.8-18.7c0.4,0,1.6,0,1.8,0c0.1,0.3,5,14.2,5,14.2L245.7,254.8z"/><path class="st4" d="M291.3,250.2c0,5.3-4.4,9.6-9.6,9.6c-5.3,0-9.6-4.2-9.6-9.6c0-5.3,4.4-9.6,9.6-9.6    C286.9,240.6,291.3,244.9,291.3,250.2z M274,250.1c0,4.2,3.4,7.7,7.6,7.7c4.2,0,7.6-3.5,7.6-7.7c0-4.2-3.3-7.7-7.6-7.7    C277.4,242.5,274,245.9,274,250.1z"/><path class="st4" d="M271.8,250.2c0,5.4,4.4,9.7,9.8,9.7c5.4,0,9.8-4.4,9.8-9.7c0-5.4-4.4-9.8-9.8-9.8    C276.2,240.4,271.8,244.8,271.8,250.2z M272.2,250.2c0-5.2,4.2-9.4,9.5-9.4c5.2,0,9.5,4.2,9.5,9.4c0,5.2-4.3,9.4-9.5,9.4    C276.4,259.5,272.2,255.3,272.2,250.2z"/><path class="st4" d="M273.8,250.1c0,4.3,3.5,7.8,7.8,7.8c4.3,0,7.8-3.5,7.8-7.8c0-4.3-3.5-7.8-7.8-7.8    C277.3,242.3,273.8,245.8,273.8,250.1z M274.2,250.1c0-4.1,3.3-7.5,7.4-7.5c4.1,0,7.4,3.4,7.4,7.5c0,4.1-3.3,7.5-7.4,7.5    C277.6,257.6,274.2,254.3,274.2,250.1z"/><path class="st4" d="M302.3,259.4h-2.1v-18.5h2.7c3.5,0,6.8,0.9,6.8,5.1c0,2.8-1.8,4.9-4.6,5.1l5.9,8.3h-2.5l-5.6-8.1h-0.5V259.4z     M302.3,249.5h0.6c2.3,0,4.7-0.4,4.7-3.3c0-3-2.2-3.3-4.7-3.3h-0.6V249.5z"/><path class="st4" d="M300.2,240.7H300v18.9h2.4c0,0,0-7.8,0-8.1c0.1,0,0.3,0,0.3,0l0,0c0,0.1,5.4,8,5.4,8l2.7,0.1h0.4    c0,0-5.6-8-5.9-8.4c2.7-0.4,4.5-2.4,4.5-5.2c0-3.6-2.3-5.3-7-5.3H300.2z M302.9,241.1c4.5,0,6.6,1.6,6.6,4.9    c0,2.8-1.7,4.7-4.5,4.9l-0.3,0c0,0,5.5,7.7,5.9,8.3c-0.5,0-2.2,0-2.2,0h0c0-0.1-5.4-8-5.4-8l-0.7-0.1h-0.2c0,0,0,7.8,0,8.1    c-0.3,0-1.4,0-1.7,0c0-0.4,0-17.7,0-18.1C300.7,241.1,302.9,241.1,302.9,241.1z"/><path class="st4" d="M302.3,242.6h-0.2v7h0.8c2.3,0,4.9-0.4,4.9-3.5c0-3.3-2.5-3.5-4.9-3.5H302.3z M302.9,243    c2.4,0,4.5,0.2,4.5,3.1c0,2.7-2.3,3.1-4.5,3.1c0,0-0.3,0-0.4,0c0-0.4,0-5.9,0-6.2C302.7,243,302.9,243,302.9,243z"/><path class="st4" d="M329.6,240.9h2.8l-8.7,8.6l9,9.9h-2.8l-7.6-8.5l-0.5,0.5v8h-2.1v-18.5h2.1v7.9L329.6,240.9z"/><path class="st4" d="M332.4,240.7h-2.8c0,0-7,7-7.6,7.7c0-0.8,0-7.7,0-7.7h-2.4v18.9h2.4c0,0,0-8.1,0-8.2c0,0,0.2-0.1,0.3-0.3    c0.3,0.3,7.5,8.3,7.5,8.3l3,0.1h0.4c0,0-8.9-9.8-9.2-10.1c0.3-0.3,8.9-8.8,8.9-8.8H332.4z M331.9,241.1c-0.6,0.6-8.5,8.4-8.5,8.4    s8.3,9.1,8.8,9.7c-0.6,0-2.4,0-2.4,0l0,0c0-0.1-7.4-8.4-7.4-8.4l-0.1-0.2l-0.7,0.7c0,0-0.1,7.6-0.1,7.9c-0.3,0-1.4,0-1.7,0    c0-0.4,0-17.7,0-18.1c0.3,0,1.4,0,1.7,0c0,0.4,0,8.2,0,8.2s8-8.1,8.1-8.2C329.8,241.1,331.3,241.1,331.9,241.1z"/></g></g></svg>