<svg width="34" height="22" viewBox="0 0 34 22" fill="none" xmlns="http://www.w3.org/2000/svg">
<path fill-rule="evenodd" clip-rule="evenodd" d="M32.4859 0.59082H1.4543C0.85 0.59082 0.471484 0.681814 0.265625 0.870301C0.0863281 1.08479 0 1.43576 0 1.95572V3.89908V5.46547V16.6642V18.3021V20.1739C0 21.1034 0.491406 21.5843 1.4543 21.5843H32.4859C33.4953 21.5843 34 21.1034 34 20.1739V18.3021V16.6642V5.45897V3.89259V1.94922C34 1.03279 33.4953 0.59082 32.4859 0.59082Z" fill="#DFDFE0"/>
<path d="M32.4859 21.5845C33.4953 21.5845 34 21.1035 34 20.1741V18.3022V16.6644V12.3682C34 12.3682 24.7762 18.7377 7.88907 21.591H32.4859V21.5845Z" fill="#F58220"/>
<path d="M17.4783 5.4458C16.3959 5.4458 15.5193 6.27124 15.5193 7.29167C15.5193 8.37709 16.3561 9.18953 17.4783 9.18953C18.5674 9.18953 19.4307 8.37059 19.4307 7.31767C19.4307 6.27124 18.574 5.4458 17.4783 5.4458Z" fill="url(#paint0_radial_890_345)"/>
<path d="M6.36172 5.51074H5.30586V9.10499H6.35508C6.91289 9.10499 7.31133 8.975 7.66328 8.68902C8.08164 8.35104 8.32735 7.83758 8.32735 7.31111C8.32735 6.25169 7.51719 5.51074 6.36172 5.51074ZM7.19844 8.21455C6.97266 8.41603 6.68047 8.50053 6.21563 8.50053H6.02305V6.1217H6.21563C6.68047 6.1217 6.95938 6.19969 7.19844 6.41418C7.44414 6.62866 7.59688 6.96664 7.59688 7.31111C7.59024 7.65559 7.44414 8.00006 7.19844 8.21455Z" fill="#081A23"/>
<path d="M9.37676 5.51074H8.65958V9.10499H9.37676V5.51074Z" fill="#081A23"/>
<path d="M11.1299 6.89538C10.6982 6.73939 10.5721 6.6354 10.5721 6.44041C10.5721 6.21293 10.7979 6.04394 11.1033 6.04394C11.3158 6.04394 11.4951 6.12844 11.6811 6.33642L12.0529 5.85546C11.7475 5.58898 11.3756 5.45898 10.9705 5.45898C10.3197 5.45898 9.82832 5.90095 9.82832 6.48591C9.82832 6.97988 10.0607 7.23336 10.7314 7.47384C11.0104 7.57133 11.1564 7.63633 11.2295 7.68183C11.3756 7.77282 11.442 7.90281 11.442 8.0523C11.442 8.34478 11.2029 8.55926 10.8842 8.55926C10.5455 8.55926 10.2666 8.39028 10.1006 8.0783L9.63574 8.51377C9.96777 8.98823 10.3596 9.19622 10.9107 9.19622C11.6545 9.19622 12.1791 8.70875 12.1791 8.0133C12.1857 7.44134 11.9467 7.18786 11.1299 6.89538Z" fill="#081A23"/>
<path d="M12.4115 7.31098C12.4115 8.37041 13.2615 9.18935 14.3506 9.18935C14.6561 9.18935 14.9217 9.13085 15.2471 8.98136V8.15592C14.9615 8.4354 14.7092 8.55239 14.3838 8.55239C13.66 8.55239 13.1486 8.03893 13.1486 7.31098C13.1486 6.62203 13.6799 6.07607 14.3506 6.07607C14.6893 6.07607 14.9482 6.19306 15.2471 6.47904V5.6536C14.935 5.49761 14.676 5.43262 14.3639 5.43262C13.2815 5.43262 12.4115 6.27106 12.4115 7.31098Z" fill="#081A23"/>
<path d="M21.051 7.92857L20.0748 5.51074H19.2912L20.8518 9.20248H21.2369L22.824 5.51074H22.0471L21.051 7.92857Z" fill="#081A23"/>
<path d="M23.1494 9.11149H25.1814V8.50053H23.8666V7.5321H25.1283V6.92114H23.8666V6.1217H25.1814V5.51074H23.1494V9.11149Z" fill="#081A23"/>
<path d="M28.017 6.57651C28.017 5.90056 27.5455 5.51709 26.7154 5.51709H25.6529V9.11133H26.3701V7.66844H26.4631L27.4525 9.11133H28.3358L27.1803 7.59694C27.7182 7.48645 28.017 7.12248 28.017 6.57651ZM26.576 7.16797H26.3701V6.07605H26.5893C27.0342 6.07605 27.2799 6.25804 27.2799 6.60901C27.2799 6.97299 27.0342 7.16797 26.576 7.16797Z" fill="#081A23"/>
<path d="M28.5217 5.78402C28.5217 5.71902 28.4818 5.68652 28.4021 5.68652H28.2959V6.005H28.3756V5.88151L28.4686 6.005H28.5615L28.4553 5.87501C28.4951 5.85551 28.5217 5.82301 28.5217 5.78402ZM28.3889 5.82301H28.3756V5.73852H28.3889C28.4287 5.73852 28.4486 5.75152 28.4486 5.77752C28.442 5.81002 28.4221 5.82301 28.3889 5.82301Z" fill="#231F20"/>
<path d="M28.4154 5.5625C28.2561 5.5625 28.1299 5.68599 28.1299 5.84198C28.1299 5.99797 28.2561 6.12146 28.4154 6.12146C28.5682 6.12146 28.6943 5.99797 28.6943 5.84198C28.6943 5.69249 28.5682 5.5625 28.4154 5.5625ZM28.4154 6.06946C28.2893 6.06946 28.1896 5.96547 28.1896 5.84198C28.1896 5.71849 28.2893 5.6145 28.4154 5.6145C28.535 5.6145 28.6412 5.71849 28.6412 5.84198C28.6346 5.96547 28.535 6.06946 28.4154 6.06946Z" fill="#231F20"/>
<path d="M11.7275 10.0537L12.6838 11.0351V10.1057H12.8232V11.3601L11.867 10.3787V11.3081H11.7275V10.0537Z" fill="#231F20"/>
<path d="M11.7143 10.054V11.3214H11.8736C11.8736 11.3214 11.8736 10.47 11.8736 10.4115C11.9135 10.457 12.8299 11.3929 12.8299 11.3929V10.093H12.6705C12.6705 10.093 12.6705 10.9444 12.6705 11.0029C12.6307 10.9574 11.7143 10.0215 11.7143 10.0215V10.054ZM11.7408 10.0865C11.7807 10.132 12.6971 11.0679 12.6971 11.0679C12.6971 11.0679 12.6971 10.1385 12.6971 10.119C12.717 10.119 12.79 10.119 12.81 10.119C12.81 10.145 12.81 11.2759 12.81 11.3344C12.7701 11.2889 11.8537 10.353 11.8537 10.353C11.8537 10.353 11.8537 11.2759 11.8537 11.2954C11.8338 11.2954 11.7607 11.2954 11.7408 11.2954C11.7408 11.2694 11.7408 10.145 11.7408 10.0865Z" fill="#231F20"/>
<path d="M13.4873 10.106H14.1248V10.2294H13.6268V10.5869H14.1115V10.7104H13.6268V11.1849H14.1248V11.3084H13.4873V10.106Z" fill="#231F20"/>
<path d="M14.1248 10.0928H13.474V11.3212H14.1381V11.1717C14.1381 11.1717 13.66 11.1717 13.64 11.1717C13.64 11.1457 13.64 10.7492 13.64 10.7232C13.6666 10.7232 14.1248 10.7232 14.1248 10.7232V10.5737C14.1248 10.5737 13.6666 10.5737 13.64 10.5737C13.64 10.5477 13.64 10.2618 13.64 10.2423C13.6666 10.2423 14.1381 10.2423 14.1381 10.2423V10.0928H14.1248ZM14.1115 10.1188C14.1115 10.1383 14.1115 10.2033 14.1115 10.2163C14.085 10.2163 13.6135 10.2163 13.6135 10.2163V10.5997C13.6135 10.5997 14.0783 10.5997 14.0982 10.5997C14.0982 10.6192 14.0982 10.6777 14.0982 10.6972C14.0717 10.6972 13.6135 10.6972 13.6135 10.6972V11.1912C13.6135 11.1912 14.0916 11.1912 14.1115 11.1912C14.1115 11.2107 14.1115 11.2757 14.1115 11.2887C14.085 11.2887 13.5272 11.2887 13.5006 11.2887C13.5006 11.2627 13.5006 10.1383 13.5006 10.1123C13.5205 10.1188 14.085 10.1188 14.1115 10.1188Z" fill="#231F20"/>
<path d="M15.0877 11.3084H14.9482V10.2294H14.6494V10.106H15.3799V10.2294H15.0811V11.3084H15.0877Z" fill="#231F20"/>
<path d="M15.3932 10.0928H14.6494V10.2423C14.6494 10.2423 14.9217 10.2423 14.9482 10.2423C14.9482 10.2683 14.9482 11.3212 14.9482 11.3212H15.1076C15.1076 11.3212 15.1076 10.2683 15.1076 10.2423C15.1342 10.2423 15.4064 10.2423 15.4064 10.2423V10.0928H15.3932ZM15.3799 10.1188C15.3799 10.1383 15.3799 10.2033 15.3799 10.2163C15.36 10.2163 15.0811 10.2163 15.0811 10.2163C15.0811 10.2163 15.0811 11.2692 15.0811 11.2952C15.0611 11.2952 14.9881 11.2952 14.9682 11.2952C14.9682 11.2692 14.9682 10.2163 14.9682 10.2163C14.9682 10.2163 14.6959 10.2163 14.6693 10.2163C14.6693 10.1968 14.6693 10.1318 14.6693 10.1188C14.6959 10.1188 15.3533 10.1188 15.3799 10.1188Z" fill="#231F20"/>
<path d="M16.3029 11.0093L16.7014 10.0474L17.0998 11.0093L17.4252 10.1059H17.5713L17.0998 11.3733L16.7014 10.4048L16.3029 11.3733L15.8315 10.1059H15.9775L16.3029 11.0093Z" fill="#231F20"/>
<path d="M16.6947 10.0406C16.6947 10.0406 16.3295 10.9181 16.3096 10.9766C16.2897 10.9181 15.9975 10.0991 15.9975 10.0991H15.8248L16.3162 11.412C16.3162 11.412 16.6947 10.4956 16.7147 10.4436C16.7346 10.5021 17.1131 11.412 17.1131 11.412L17.6045 10.0991H17.4318C17.4318 10.0991 17.1397 10.9181 17.1197 10.9766C17.0932 10.9181 16.7213 10.0146 16.7213 10.0146L16.6947 10.0406ZM16.3162 11.0091C16.3162 11.0091 16.6815 10.1251 16.7014 10.0731C16.7213 10.1251 17.0998 11.0416 17.0998 11.0416C17.0998 11.0416 17.4252 10.1316 17.4318 10.1186C17.4451 10.1186 17.5248 10.1186 17.5514 10.1186C17.5381 10.1511 17.1197 11.2756 17.0998 11.3341C17.0733 11.2756 16.7014 10.3656 16.7014 10.3656C16.7014 10.3656 16.3295 11.2756 16.3029 11.3341C16.283 11.2756 15.8647 10.1511 15.8514 10.1186C15.8779 10.1186 15.9576 10.1186 15.9709 10.1186C15.9775 10.1381 16.3029 11.0416 16.3029 11.0416L16.3162 11.0091Z" fill="#231F20"/>
<path d="M19.3443 10.7099C19.3443 11.0544 19.0521 11.3338 18.7068 11.3338C18.3549 11.3338 18.0693 11.0609 18.0693 10.7099C18.0693 10.3654 18.3615 10.0859 18.7068 10.0859C19.0521 10.0859 19.3443 10.3654 19.3443 10.7099ZM18.1955 10.7034C18.1955 10.9764 18.4213 11.2039 18.7002 11.2039C18.9791 11.2039 19.2049 10.9764 19.2049 10.7034C19.2049 10.4304 18.9857 10.2029 18.7002 10.2029C18.4213 10.2094 18.1955 10.4304 18.1955 10.7034Z" fill="#231F20"/>
<path d="M18.0494 10.7102C18.0494 11.0612 18.3416 11.3407 18.7002 11.3407C19.0588 11.3407 19.351 11.0547 19.351 10.7102C19.351 10.3592 19.0588 10.0732 18.7002 10.0732C18.3416 10.0732 18.0494 10.3592 18.0494 10.7102ZM18.076 10.7102C18.076 10.3722 18.3549 10.0992 18.7068 10.0992C19.0522 10.0992 19.3377 10.3722 19.3377 10.7102C19.3377 11.0482 19.0522 11.3212 18.7068 11.3212C18.3549 11.3147 18.076 11.0417 18.076 10.7102Z" fill="#231F20"/>
<path d="M18.1822 10.7037C18.1822 10.9832 18.4147 11.2107 18.7002 11.2107C18.9858 11.2107 19.2182 10.9832 19.2182 10.7037C19.2182 10.4243 18.9858 10.1968 18.7002 10.1968C18.4147 10.1968 18.1822 10.4243 18.1822 10.7037ZM18.2088 10.7037C18.2088 10.4373 18.4279 10.2163 18.7002 10.2163C18.9725 10.2163 19.1916 10.4373 19.1916 10.7037C19.1916 10.9702 18.9725 11.1912 18.7002 11.1912C18.4346 11.1912 18.2088 10.9767 18.2088 10.7037Z" fill="#231F20"/>
<path d="M20.0748 11.3084H19.9353V10.106H20.1146C20.3471 10.106 20.5662 10.1645 20.5662 10.4374C20.5662 10.6194 20.4467 10.7559 20.2607 10.7689L20.6525 11.3084H20.4865L20.1146 10.7819H20.0814V11.3084H20.0748ZM20.0748 10.6649H20.1146C20.2674 10.6649 20.4268 10.6389 20.4268 10.4504C20.4268 10.2554 20.2807 10.2359 20.1146 10.2359H20.0748V10.6649Z" fill="#231F20"/>
<path d="M19.9354 10.0928H19.9221V11.3212H20.0814C20.0814 11.3212 20.0814 10.8142 20.0814 10.7947C20.0881 10.7947 20.1014 10.7947 20.1014 10.7947C20.1014 10.8012 20.46 11.3147 20.46 11.3147L20.6393 11.3212H20.6658C20.6658 11.3212 20.2939 10.8012 20.274 10.7752C20.4533 10.7492 20.5729 10.6192 20.5729 10.4372C20.5729 10.2033 20.4201 10.0928 20.108 10.0928H19.9354ZM20.1147 10.1188C20.4135 10.1188 20.5529 10.2228 20.5529 10.4372C20.5529 10.6192 20.44 10.7427 20.2541 10.7557H20.2342C20.2342 10.7557 20.5994 11.2562 20.626 11.2952C20.5928 11.2952 20.4799 11.2952 20.4799 11.2952C20.4799 11.2887 20.1213 10.7752 20.1213 10.7752L20.0748 10.7687H20.0615C20.0615 10.7687 20.0615 11.2757 20.0615 11.2952C20.0416 11.2952 19.9686 11.2952 19.9486 11.2952C19.9486 11.2692 19.9486 10.1448 19.9486 10.1188C19.9686 10.1188 20.1147 10.1188 20.1147 10.1188Z" fill="#231F20"/>
<path d="M20.0748 10.2163H20.0615V10.6713H20.1146C20.2674 10.6713 20.44 10.6453 20.44 10.4438C20.44 10.2293 20.274 10.2163 20.1146 10.2163H20.0748ZM20.1146 10.2423C20.274 10.2423 20.4135 10.2553 20.4135 10.4438C20.4135 10.6193 20.2607 10.6453 20.1146 10.6453C20.1146 10.6453 20.0947 10.6453 20.0881 10.6453C20.0881 10.6193 20.0881 10.2618 20.0881 10.2423C20.1014 10.2423 20.1146 10.2423 20.1146 10.2423Z" fill="#231F20"/>
<path d="M21.8877 10.106H22.0736L21.4959 10.6649L22.0936 11.3084H21.9076L21.4029 10.7559L21.3697 10.7884V11.3084H21.2303V10.106H21.3697V10.6194L21.8877 10.106Z" fill="#231F20"/>
<path d="M22.0736 10.0924H21.8877C21.8877 10.0924 21.4229 10.5474 21.383 10.5929C21.383 10.5409 21.383 10.0924 21.383 10.0924H21.2236V11.3208H21.383C21.383 11.3208 21.383 10.7944 21.383 10.7879C21.383 10.7879 21.3963 10.7814 21.4029 10.7684C21.4229 10.7879 21.901 11.3078 21.901 11.3078L22.1002 11.3143H22.1268C22.1268 11.3143 21.5357 10.6774 21.5158 10.6579C21.5357 10.6384 22.1068 10.0859 22.1068 10.0859H22.0736V10.0924ZM22.0404 10.1184C22.0006 10.1574 21.476 10.6644 21.476 10.6644C21.476 10.6644 22.0271 11.2559 22.0604 11.2949C22.0205 11.2949 21.901 11.2949 21.901 11.2949C21.901 11.2884 21.4096 10.7489 21.4096 10.7489L21.4029 10.7359L21.3564 10.7814C21.3564 10.7814 21.3498 11.2754 21.3498 11.2949C21.3299 11.2949 21.2568 11.2949 21.2369 11.2949C21.2369 11.2689 21.2369 10.1444 21.2369 10.1184C21.2568 10.1184 21.3299 10.1184 21.3498 10.1184C21.3498 10.1444 21.3498 10.6514 21.3498 10.6514C21.3498 10.6514 21.8811 10.1249 21.8877 10.1184C21.901 10.1184 22.0006 10.1184 22.0404 10.1184Z" fill="#231F20"/>
<defs>
<radialGradient id="paint0_radial_890_345" cx="0" cy="0" r="1" gradientUnits="userSpaceOnUse" gradientTransform="translate(17.4769 7.31853) scale(1.93436 1.89326)">
<stop offset="0.005618" stop-color="#FFEEE1"/>
<stop offset="0.0966472" stop-color="#FFEAD8"/>
<stop offset="0.2452" stop-color="#FEDDC2"/>
<stop offset="0.4329" stop-color="#FCCA9F"/>
<stop offset="0.6522" stop-color="#F9AF72"/>
<stop offset="0.8954" stop-color="#F68F39"/>
<stop offset="1" stop-color="#F48220"/>
</radialGradient>
</defs>
</svg>
