<svg width="34" height="22" viewBox="0 0 34 22" fill="none" xmlns="http://www.w3.org/2000/svg">
<rect y="0.5" width="34" height="21" rx="3" fill="#31326F"/>
<path d="M19.7873 6.13037H14.3446V15.8706H19.7873V6.13037Z" fill="#FF5F00"/>
<path d="M14.6903 11.0003C14.6903 9.10735 15.5715 7.30042 17.0575 6.13022C14.362 4.01354 10.4571 4.47818 8.33179 7.17996C6.20653 9.86454 6.67305 13.7537 9.38579 15.8704C11.6493 17.6429 14.8112 17.6429 17.0747 15.8704C15.5715 14.7002 14.6903 12.8933 14.6903 11.0003Z" fill="#EB001B"/>
<path d="M27.1309 11.0003C27.1309 14.4249 24.3491 17.1955 20.9106 17.1955C19.5111 17.1955 18.1633 16.7309 17.0748 15.8704C19.7702 13.7537 20.2368 9.86454 18.1115 7.16275C17.8005 6.78416 17.4549 6.42277 17.0748 6.13022C19.7702 4.01354 23.6925 4.47818 25.8005 7.17996C26.6644 8.26412 27.1309 9.60641 27.1309 11.0003Z" fill="#F79E1B"/>
<path d="M26.5435 14.8381V14.6316H26.6299V14.5972H26.4225V14.6316H26.5089V14.8381H26.5435ZM26.9409 14.8381V14.5972H26.8718L26.8027 14.7693L26.7336 14.5972H26.6644V14.8381H26.7163V14.6488L26.7854 14.8037H26.8372L26.9063 14.6488V14.8381H26.9409Z" fill="#F79E1B"/>
</svg>
