<svg width="34" height="22" viewBox="0 0 34 22" fill="none" xmlns="http://www.w3.org/2000/svg">
<rect y="0.5" width="34" height="21" rx="3" fill="white"/>
<g clip-path="url(#clip0_890_335)">
<path d="M15.4 14.3992H13.4558L14.6718 7.62305H16.6159L15.4 14.3992Z" fill="#00579F"/>
<path d="M22.4478 7.78849C22.0643 7.65138 21.4561 7.5 20.704 7.5C18.7841 7.5 17.4321 8.42267 17.4238 9.7418C17.4078 10.7151 18.3918 11.2556 19.1277 11.5801C19.8798 11.9117 20.1355 12.1282 20.1355 12.4238C20.1279 12.8777 19.5277 13.087 18.968 13.087C18.1918 13.087 17.7759 12.9791 17.1438 12.7265L16.8878 12.6183L16.6158 14.1394C17.0718 14.3266 17.9119 14.4927 18.7841 14.5C20.824 14.5 22.1521 13.5916 22.1678 12.1859C22.1756 11.4145 21.656 10.8234 20.5359 10.3404C19.8559 10.0304 19.4395 9.82133 19.4395 9.50409C19.4475 9.2157 19.7917 8.92031 20.5593 8.92031C21.1913 8.90584 21.6557 9.04276 22.0075 9.17977L22.1834 9.25173L22.4478 7.78849Z" fill="#00579F"/>
<path d="M25.0317 11.9987C25.1918 11.6094 25.8079 10.1027 25.8079 10.1027C25.7998 10.1172 25.9677 9.70628 26.0637 9.45401L26.1996 10.0379C26.1996 10.0379 26.5677 11.6599 26.6477 11.9987C26.3439 11.9987 25.4157 11.9987 25.0317 11.9987ZM27.4316 7.62305H25.9277C25.464 7.62305 25.1117 7.74549 24.9116 8.18527L22.0238 14.3991H24.0637C24.0637 14.3991 24.3996 13.5628 24.4718 13.3827C24.6956 13.3827 26.68 13.3827 26.9679 13.3827C27.0237 13.6206 27.1999 14.3991 27.1999 14.3991H29L27.4316 7.62305Z" fill="#00579F"/>
<path d="M11.832 7.62305L9.92798 12.2438L9.71992 11.3066C9.36792 10.2253 8.26395 9.05045 7.03198 8.46629L8.77596 14.392H10.8319L13.8878 7.62305H11.832Z" fill="#00579F"/>
<path d="M8.15998 7.62305H5.032L5 7.75996C7.44002 8.32228 9.05599 9.67773 9.71993 11.3069L9.03994 8.19265C8.92799 7.75987 8.58396 7.63732 8.15998 7.62305Z" fill="#FAA61A"/>
</g>
<defs>
<clipPath id="clip0_890_335">
<rect width="24" height="7" fill="white" transform="translate(5 7.5)"/>
</clipPath>
</defs>
</svg>
