<svg width="57" height="13" viewBox="0 0 57 13" fill="none" xmlns="http://www.w3.org/2000/svg">
<path d="M10.0305 0H7.22389C7.22389 2.35312 6.1667 4.50049 4.32921 5.91494L3.22168 6.7636L7.52594 12.7557H11.0625L7.09803 7.23937C8.97328 5.3363 10.0305 2.76459 10.0305 0Z" fill="white"/>
<path d="M2.86951 0H0V12.7557H2.86951V0Z" fill="white"/>
<path d="M14.5994 0H11.8936V12.7557H14.5994V0Z" fill="white"/>
<path d="M38.3352 3.69043C37.3032 3.69043 36.3215 4.01189 35.6671 4.92485V3.93474H33.0996V12.7557H35.7048V8.12663C35.7048 6.78934 36.5858 6.13356 37.643 6.13356C38.7757 6.13356 39.4301 6.82792 39.4301 8.11377V12.7686H42.0102V7.14938C42.0102 5.09201 40.4118 3.69043 38.3352 3.69043Z" fill="white"/>
<path d="M22.7797 3.93474V4.50052C22.0497 3.98618 21.1687 3.69043 20.2122 3.69043C17.6951 3.69043 15.6562 5.77352 15.6562 8.34523C15.6562 10.9169 17.6951 13 20.2122 13C21.1687 13 22.0497 12.7043 22.7797 12.1899V12.7557H25.3597V3.93474H22.7797ZM20.4262 10.6083C19.1299 10.6083 18.0853 9.59251 18.0853 8.34523C18.0853 7.09795 19.1299 6.08212 20.4262 6.08212C21.7225 6.08212 22.7671 7.09795 22.7671 8.34523C22.7671 9.59251 21.7225 10.6083 20.4262 10.6083Z" fill="white"/>
<path d="M29.3617 5.0791V3.93469H26.7188V12.7557H29.3743V8.64092C29.3743 7.2522 30.8468 6.5064 31.8662 6.5064C31.8788 6.5064 31.8914 6.5064 31.8914 6.5064V3.93469C30.8468 3.93469 29.8777 4.3976 29.3617 5.0791Z" fill="white"/>
<path d="M50.0404 3.93474V4.50052C49.3105 3.98618 48.4295 3.69043 47.473 3.69043C44.9559 3.69043 42.917 5.77352 42.917 8.34523C42.917 10.9169 44.9559 13 47.473 13C48.4295 13 49.3105 12.7043 50.0404 12.1899V12.7557H52.6205V3.93474H50.0404ZM47.6869 10.6083C46.3906 10.6083 45.346 9.59251 45.346 8.34523C45.346 7.09795 46.3906 6.08212 47.6869 6.08212C48.9832 6.08212 50.0278 7.09795 50.0278 8.34523C50.0404 9.59251 48.9832 10.6083 47.6869 10.6083Z" fill="white"/>
<path d="M54.6209 4.19188C54.6209 4.0633 54.5328 3.98615 54.3944 3.98615H54.1553V4.65479H54.2685V4.41048H54.3944L54.4951 4.65479H54.6209L54.5077 4.38476C54.5832 4.34618 54.6209 4.28189 54.6209 4.19188ZM54.3944 4.29475H54.2685V4.08901H54.3944C54.4699 4.08901 54.5077 4.12759 54.5077 4.19188C54.5077 4.25617 54.4825 4.29475 54.3944 4.29475Z" fill="white"/>
<path d="M54.3569 3.70325C54.0171 3.70325 53.7402 3.98614 53.7402 4.33332C53.7528 4.6805 54.0171 4.96339 54.3569 4.96339C54.6967 4.96339 54.9736 4.6805 54.9736 4.33332C54.9736 3.98614 54.6967 3.70325 54.3569 3.70325ZM54.3569 4.84766C54.08 4.84766 53.8661 4.6162 53.8661 4.33332C53.8661 4.05043 54.0926 3.81897 54.3569 3.81897C54.6338 3.81897 54.8478 4.05043 54.8478 4.33332C54.8478 4.6162 54.6212 4.84766 54.3569 4.84766Z" fill="white"/>
<path d="M55.3765 9.63104C54.4829 9.63104 53.7529 10.3768 53.7529 11.2898C53.7529 12.2028 54.4829 12.9485 55.3765 12.9485C56.27 12.9485 57 12.2028 57 11.2898C57 10.364 56.27 9.63104 55.3765 9.63104Z" fill="white"/>
</svg>
