<?xml version="1.0" encoding="utf-8"?>
<!-- Generator: Adobe Illustrator 23.0.3, SVG Export Plug-In . SVG Version: 6.00 Build 0)  -->
<svg version="1.1" id="Layer_1" xmlns="http://www.w3.org/2000/svg" xmlns:xlink="http://www.w3.org/1999/xlink" x="0px" y="0px"
	 viewBox="0 0 410.7 72" style="enable-background:new 0 0 410.7 72;" xml:space="preserve">
<style type="text/css">
	.st0{fill:#231F20;}
	.st1{fill:#FF5F00;}
	.st2{fill:#EB001B;}
	.st3{fill:#F79E1B;}
</style>
<path class="st0" d="M178.4,48.1v-15c0-5.7-3.6-9.5-9.4-9.5c-3.4-0.2-6.6,1.4-8.4,4.3c-1.7-2.8-4.7-4.4-7.9-4.3
	c-2.8-0.1-5.5,1.2-7,3.6v-3h-5.2v23.9h5.3V34.9c0-4.2,2.3-6.4,5.9-6.4c3.5,0,5.2,2.3,5.2,6.3v13.3h5.3V34.9c0-4.2,2.4-6.4,5.9-6.4
	c3.6,0,5.3,2.3,5.3,6.3v13.3H178.4z M256.3,24.2h-8.5v-7.3h-5.3v7.3h-4.9v4.8h4.9v10.9c0,5.6,2.2,8.9,8.3,8.9c2.3,0,4.6-0.6,6.5-1.9
	l-1.5-4.5c-1.4,0.8-3,1.3-4.6,1.4c-2.6,0-3.5-1.6-3.5-4V28.9h8.5V24.2z M300.7,23.6c-2.6-0.1-5,1.3-6.3,3.5v-2.9h-5.2v23.9h5.2V34.7
	c0-4,1.7-6.2,5.1-6.2c1.1,0,2.2,0.2,3.3,0.6l1.6-4.9C303.2,23.8,302,23.6,300.7,23.6L300.7,23.6z M233.5,26.1
	c-2.9-1.8-6.3-2.6-9.8-2.5c-6.1,0-10,2.9-10,7.7c0,3.9,2.9,6.3,8.3,7.1l2.5,0.4c2.9,0.4,4.2,1.2,4.2,2.5c0,1.9-1.9,2.9-5.5,2.9
	c-2.9,0.1-5.7-0.8-8-2.5l-2.5,4.1c3,2.1,6.7,3.2,10.4,3.1c6.9,0,10.9-3.3,10.9-7.8c0-4.2-3.2-6.4-8.4-7.2l-2.5-0.4
	c-2.3-0.3-4.1-0.8-4.1-2.4c0-1.8,1.7-2.8,4.6-2.8c2.6,0,5.2,0.7,7.5,2.1L233.5,26.1z M373.1,23.6c-2.6-0.1-5,1.3-6.3,3.5v-2.9h-5.2
	v23.9h5.2V34.7c0-4,1.7-6.2,5.1-6.2c1.1,0,2.2,0.2,3.3,0.6l1.6-4.9C375.6,23.8,374.3,23.6,373.1,23.6L373.1,23.6z M305.9,36.2
	c0,7.3,5.1,12.6,12.8,12.6c3.1,0.2,6.2-0.9,8.6-2.9l-2.5-4.2c-1.8,1.4-4,2.1-6.3,2.2c-4.2,0-7.2-3.1-7.2-7.7c0-4.6,3.1-7.6,7.2-7.7
	c2.3,0,4.5,0.8,6.3,2.2l2.5-4.2c-2.4-2-5.5-3-8.6-2.9C311,23.6,305.9,28.9,305.9,36.2L305.9,36.2z M354.7,36.2v-12h-5.2v2.9
	c-1.8-2.3-4.6-3.6-7.6-3.5c-6.7,0-12,5.3-12,12.6c0,7.3,5.3,12.6,12,12.6c2.9,0.1,5.8-1.2,7.6-3.5v2.9h5.2V36.2z M335.3,36.2
	c0-4.2,2.8-7.7,7.3-7.7c4.3,0,7.2,3.3,7.2,7.7s-2.9,7.7-7.2,7.7C338.1,43.8,335.3,40.4,335.3,36.2z M272.5,23.6
	c-7,0-11.9,5.1-11.9,12.6c0,7.6,5.1,12.6,12.3,12.6c3.6,0.1,7.1-1.1,9.8-3.4l-2.6-3.9c-2,1.6-4.4,2.5-7,2.5c-3.4,0-6.4-1.6-7.2-5.9
	h17.8c0.1-0.7,0.1-1.3,0.1-2C283.8,28.7,279.2,23.6,272.5,23.6L272.5,23.6z M272.4,28.2c3.4,0,5.5,2.1,6.1,5.8H266
	C266.6,30.6,268.7,28.2,272.4,28.2z M403.1,36.2V14.6h-5.2v12.5c-1.8-2.3-4.6-3.6-7.6-3.5c-6.7,0-12,5.3-12,12.6
	c0,7.3,5.3,12.6,12,12.6c2.9,0.1,5.8-1.2,7.6-3.5v2.9h5.2V36.2z M409.2,45.9c0.2,0,0.4,0,0.6,0.1c0.2,0.1,0.3,0.2,0.5,0.3
	c0.1,0.1,0.3,0.3,0.3,0.5c0.2,0.4,0.2,0.8,0,1.2c-0.1,0.2-0.2,0.3-0.3,0.5c-0.1,0.1-0.3,0.2-0.5,0.3c-0.2,0.1-0.4,0.1-0.6,0.1
	c-0.6,0-1.2-0.4-1.4-0.9c-0.2-0.4-0.2-0.8,0-1.2c0.2-0.4,0.5-0.7,0.8-0.8C408.7,46,408.9,45.9,409.2,45.9L409.2,45.9z M409.2,48.6
	c0.2,0,0.3,0,0.5-0.1c0.1-0.1,0.3-0.1,0.4-0.3c0.5-0.5,0.5-1.2,0-1.7c-0.1-0.1-0.2-0.2-0.4-0.3c-0.1-0.1-0.3-0.1-0.5-0.1
	c-0.2,0-0.3,0-0.5,0.1c-0.6,0.3-0.9,1-0.6,1.6c0.1,0.1,0.1,0.3,0.2,0.4c0.1,0.1,0.2,0.2,0.4,0.3C408.8,48.6,409,48.6,409.2,48.6
	L409.2,48.6z M409.2,46.7c0.1,0,0.3,0,0.4,0.1c0.1,0.1,0.2,0.2,0.1,0.3c0,0.1,0,0.2-0.1,0.3c-0.1,0.1-0.2,0.1-0.3,0.1l0.5,0.5h-0.4
	l-0.4-0.5h-0.1v0.5h-0.3v-1.4L409.2,46.7z M408.9,47v0.4h0.3c0.1,0,0.1,0,0.2,0c0,0,0.1-0.1,0.1-0.1c0-0.1,0-0.1-0.1-0.1
	c-0.1,0-0.1,0-0.2,0H408.9z M383.7,36.2c0-4.2,2.8-7.7,7.3-7.7c4.3,0,7.2,3.3,7.2,7.7s-2.9,7.7-7.2,7.7
	C386.4,43.8,383.7,40.4,383.7,36.2z M207.8,36.2v-12h-5.2v2.9c-1.8-2.3-4.6-3.6-7.6-3.5c-6.7,0-12,5.3-12,12.6
	c0,7.3,5.3,12.6,12,12.6c2.9,0.1,5.8-1.2,7.6-3.5v2.9h5.2V36.2z M188.4,36.2c0-4.2,2.8-7.7,7.3-7.7c4.3,0,7.2,3.3,7.2,7.7
	s-2.9,7.7-7.2,7.7C191.1,43.8,188.4,40.4,188.4,36.2L188.4,36.2z"/>
<g>
	<rect x="42.5" y="7.7" class="st1" width="31.5" height="56.6"/>
	<path class="st2" d="M44.5,36c0-11,5.1-21.5,13.7-28.3C42.6-4.6,20-1.9,7.7,13.8C-4.6,29.4-1.9,52,13.8,64.3
		c13.1,10.3,31.4,10.3,44.5,0C49.6,57.5,44.5,47,44.5,36z"/>
	<path class="st3" d="M116.5,36c0,19.9-16.1,36-36,36c-8.1,0-15.9-2.7-22.2-7.7c15.6-12.3,18.3-34.9,6-50.6c-1.8-2.2-3.8-4.3-6-6
		c15.6-12.3,38.3-9.6,50.5,6.1C113.8,20.1,116.5,27.9,116.5,36z"/>
	<path class="st3" d="M113.1,58.3v-1.2h0.5v-0.2h-1.2v0.2h0.5v1.2H113.1z M115.4,58.3v-1.4H115l-0.4,1l-0.4-1h-0.4v1.4h0.3v-1.1
		l0.4,0.9h0.3l0.4-0.9v1.1H115.4z"/>
</g>
</svg>
