<svg width="104" height="17" viewBox="0 0 104 17" fill="none" xmlns="http://www.w3.org/2000/svg">
<path d="M45.1713 11.3537V7.81363C45.1713 6.46841 44.2598 5.57161 42.7913 5.57161C41.9305 5.52441 41.1203 5.90201 40.6646 6.58642C40.2341 5.92561 39.4746 5.54801 38.6643 5.57161C37.9554 5.54801 37.2718 5.85481 36.892 6.42122V5.71321H35.5754V11.3537H36.9173V8.23843C36.9173 7.24722 37.4997 6.72802 38.4112 6.72802C39.2973 6.72802 39.7277 7.27082 39.7277 8.21483V11.3537H41.0697V8.23843C41.0697 7.24722 41.6773 6.72802 42.5635 6.72802C43.475 6.72802 43.9054 7.27082 43.9054 8.21483V11.3537H45.1713ZM64.8948 5.71321H62.7427V3.9904H61.4008V5.71321H60.1602V6.84602H61.4008V9.41844C61.4008 10.74 61.9578 11.5189 63.5023 11.5189C64.0846 11.5189 64.6669 11.3773 65.148 11.0705L64.7682 10.0084C64.4138 10.1972 64.0087 10.3152 63.6035 10.3388C62.9453 10.3388 62.7174 9.96124 62.7174 9.39484V6.82242H64.8695V5.71321H64.8948ZM76.1365 5.57161C75.4782 5.54801 74.8705 5.87841 74.5414 6.39761V5.71321H73.2248V11.3537H74.5414V8.19123C74.5414 7.24722 74.9718 6.72802 75.8326 6.72802C76.1111 6.72802 76.3896 6.77522 76.6682 6.86962L77.0732 5.71321C76.7694 5.61881 76.4656 5.57161 76.1365 5.57161ZM59.1221 6.16161C58.3878 5.73681 57.527 5.54801 56.6408 5.57161C55.0964 5.57161 54.1089 6.25601 54.1089 7.38882C54.1089 8.30923 54.8432 8.87564 56.2104 9.06444L56.8434 9.15884C57.5776 9.25324 57.9068 9.44204 57.9068 9.74884C57.9068 10.1972 57.4257 10.4332 56.5142 10.4332C55.78 10.4568 55.0711 10.2444 54.4887 9.84324L53.8557 10.8108C54.6153 11.3065 55.5521 11.5661 56.4889 11.5425C58.2359 11.5425 59.2487 10.7636 59.2487 9.70164C59.2487 8.71043 58.4385 8.19123 57.1219 8.00243L56.4889 7.90803C55.9066 7.83723 55.4508 7.71923 55.4508 7.34162C55.4508 6.91682 55.8813 6.68082 56.6155 6.68082C57.2738 6.68082 57.9321 6.84602 58.5144 7.17642L59.1221 6.16161ZM94.4674 5.57161C93.8091 5.54801 93.2014 5.87841 92.8723 6.39761V5.71321H91.5557V11.3537H92.8723V8.19123C92.8723 7.24722 93.3027 6.72802 94.1636 6.72802C94.4421 6.72802 94.7206 6.77522 94.9991 6.86962L95.4042 5.71321C95.1004 5.61881 94.7712 5.57161 94.4674 5.57161ZM77.453 8.54523C77.453 10.268 78.7443 11.5189 80.6939 11.5189C81.4788 11.5661 82.2636 11.3065 82.8713 10.8344L82.2383 9.84324C81.7826 10.1736 81.2256 10.3388 80.6432 10.3624C79.5798 10.3624 78.8203 9.63084 78.8203 8.54523C78.8203 7.45962 79.6052 6.75162 80.6432 6.72802C81.2256 6.72802 81.7826 6.91682 82.2383 7.24722L82.8713 6.25601C82.2636 5.78401 81.4788 5.54801 80.6939 5.57161C78.7443 5.57161 77.453 6.82242 77.453 8.54523ZM89.8087 5.71321H88.4921V6.39761C88.0364 5.85481 87.3274 5.54801 86.5679 5.57161C84.8715 5.57161 83.5296 6.82242 83.5296 8.54523C83.5296 10.268 84.8715 11.5189 86.5679 11.5189C87.3021 11.5425 88.0364 11.2357 88.4921 10.6928V11.3773H89.8087V5.71321ZM84.8968 8.54523C84.8968 7.55402 85.6058 6.72802 86.7451 6.72802C87.8338 6.72802 88.5681 7.50682 88.5681 8.54523C88.5681 9.58364 87.8338 10.3624 86.7451 10.3624C85.6058 10.3388 84.8968 9.53644 84.8968 8.54523ZM68.9965 5.57161C67.2242 5.57161 65.9835 6.77522 65.9835 8.54523C65.9835 10.3388 67.2748 11.5189 69.0978 11.5189C70.0093 11.5425 70.8954 11.2593 71.579 10.7164L70.9207 9.79604C70.4144 10.1736 69.8067 10.386 69.1484 10.386C68.2876 10.386 67.528 10.0084 67.3254 8.99363H71.8322C71.8575 8.82843 71.8575 8.68683 71.8575 8.52163C71.8575 6.77522 70.6929 5.57161 68.9965 5.57161ZM68.9712 6.65722C69.832 6.65722 70.3637 7.15282 70.5156 8.02603H67.3508C67.5027 7.22362 68.0344 6.65722 68.9712 6.65722ZM102.063 3.44759H100.747V6.39761C100.291 5.85481 99.5818 5.54801 98.8223 5.57161C97.1259 5.57161 95.784 6.82242 95.784 8.54523C95.784 10.268 97.1259 11.5189 98.8223 11.5189C99.5565 11.5425 100.291 11.2357 100.747 10.6928V11.3773H102.063V3.44759ZM103.608 10.8344C103.658 10.8344 103.709 10.8344 103.759 10.858C103.81 10.8816 103.835 10.9053 103.886 10.9289C103.911 10.9525 103.962 10.9997 103.962 11.0469C104.013 11.1413 104.013 11.2357 103.962 11.3301C103.937 11.3773 103.911 11.4009 103.886 11.4481C103.861 11.4717 103.81 11.4953 103.759 11.5189C103.709 11.5425 103.658 11.5425 103.608 11.5425C103.456 11.5425 103.304 11.4481 103.253 11.3301C103.202 11.2357 103.202 11.1413 103.253 11.0469C103.304 10.9524 103.38 10.8816 103.456 10.858C103.481 10.858 103.532 10.8344 103.608 10.8344ZM103.608 11.4717C103.658 11.4717 103.684 11.4717 103.734 11.4481C103.759 11.4245 103.81 11.4245 103.835 11.3773C103.962 11.2593 103.962 11.0941 103.835 10.9761C103.81 10.9524 103.785 10.9289 103.734 10.9052C103.709 10.8816 103.658 10.8816 103.608 10.8816C103.557 10.8816 103.532 10.8816 103.481 10.9052C103.329 10.9761 103.253 11.1413 103.329 11.2829C103.354 11.3065 103.354 11.3537 103.38 11.3773C103.405 11.4009 103.43 11.4245 103.481 11.4481C103.506 11.4717 103.557 11.4717 103.608 11.4717ZM103.608 11.0233C103.633 11.0233 103.684 11.0233 103.709 11.0469C103.734 11.0705 103.759 11.0941 103.734 11.1177C103.734 11.1413 103.734 11.1649 103.709 11.1885C103.684 11.2121 103.658 11.2121 103.633 11.2121L103.759 11.3301H103.658L103.557 11.2121H103.532V11.3301H103.456V10.9997L103.608 11.0233ZM103.532 11.0941V11.1885H103.608C103.633 11.1885 103.633 11.1885 103.658 11.1885L103.684 11.1649C103.684 11.1413 103.684 11.1413 103.658 11.1413C103.633 11.1413 103.633 11.1413 103.608 11.1413H103.532V11.0941ZM97.1512 8.54523C97.1512 7.55402 97.8601 6.72802 98.9995 6.72802C100.088 6.72802 100.822 7.50682 100.822 8.54523C100.822 9.58364 100.088 10.3624 98.9995 10.3624C97.8348 10.3388 97.1512 9.53644 97.1512 8.54523ZM52.6151 5.71321H51.2985V6.39761C50.8428 5.85481 50.1339 5.54801 49.3743 5.57161C47.6779 5.57161 46.336 6.82242 46.336 8.54523C46.336 10.268 47.6779 11.5189 49.3743 11.5189C50.1085 11.5425 50.8428 11.2357 51.2985 10.6928V11.3773H52.6151V5.71321ZM47.7032 8.54523C47.7032 7.55402 48.4122 6.72802 49.5515 6.72802C50.6402 6.72802 51.3745 7.50682 51.3745 8.54523C51.3745 9.58364 50.6402 10.3624 49.5515 10.3624C48.3868 10.3388 47.7032 9.53644 47.7032 8.54523Z" fill="white"/>
<path d="M18.7383 1.81918H10.7628V15.1769H18.7383V1.81918Z" fill="white"/>
<path d="M11.2691 8.49803C11.2691 5.90201 12.5603 3.42399 14.7378 1.81918C10.788 -1.08364 5.0659 -0.446439 1.95167 3.25879C-1.16257 6.94042 -0.478953 12.2741 3.49613 15.1769C6.81291 17.6077 11.4463 17.6077 14.7631 15.1769C12.5603 13.5721 11.2691 11.0941 11.2691 8.49803Z" fill="white"/>
<path d="M29.4989 8.49821C29.4989 13.1946 25.4225 16.9943 20.384 16.9943C18.3332 16.9943 16.3582 16.3569 14.7631 15.1769C18.7128 12.2741 19.3966 6.9406 16.2824 3.23537C15.8266 2.71616 15.3202 2.22056 14.7632 1.81936C18.713 -1.08347 24.4604 -0.44626 27.5493 3.25897C28.8153 4.74578 29.4989 6.58659 29.4989 8.49821Z" fill="white"/>
<path d="M28.638 13.7609V13.4777H28.7646V13.4305H28.4608V13.4777H28.5874V13.7609H28.638ZM29.2204 13.7609V13.4305H29.1191L29.0178 13.6665L28.9165 13.4305H28.8153V13.7609H28.8912V13.5013L28.9925 13.7137H29.0685L29.1697 13.5013V13.7609H29.2204Z" fill="white"/>
</svg>
