<svg width="59" height="17" viewBox="0 0 59 17" fill="none" xmlns="http://www.w3.org/2000/svg">
<g clip-path="url(#clip0_465_53)">
<path d="M7.55845 0.7948H3.03588C2.7264 0.7948 2.4632 1.01116 2.41493 1.30516L0.585803 12.4651C0.549432 12.6853 0.726657 12.8838 0.95877 12.8838H3.11788C3.42737 12.8838 3.69056 12.6674 3.73884 12.3728L4.23216 9.3628C4.27977 9.06816 4.54362 8.8518 4.85245 8.8518H6.28414C9.26325 8.8518 10.9826 7.46453 11.4316 4.71544C11.634 3.51271 11.4402 2.56771 10.855 1.90589C10.2122 1.17916 9.07214 0.7948 7.55845 0.7948ZM8.08021 4.87071C7.83288 6.43235 6.59296 6.43234 5.39404 6.43234H4.71159L5.19037 3.51589C5.2188 3.33962 5.37751 3.2098 5.56267 3.2098H5.87546C6.69216 3.2098 7.46256 3.2098 7.86066 3.6578C8.09806 3.92507 8.1708 4.32216 8.08021 4.87071Z" fill="white"/>
<path d="M21.0774 4.82045H18.9116C18.7271 4.82045 18.5678 4.95027 18.5393 5.12654L18.4434 5.70945L18.292 5.49818C17.8231 4.84336 16.7776 4.62445 15.7341 4.62445C13.3409 4.62445 11.2969 6.36872 10.8988 8.81554C10.6918 10.0361 10.9861 11.2032 11.7055 12.0171C12.3655 12.7655 13.3098 13.0773 14.4334 13.0773C16.3617 13.0773 17.431 11.8841 17.431 11.8841L17.3344 12.4632C17.2981 12.6846 17.4753 12.8832 17.7061 12.8832H19.6569C19.967 12.8832 20.2289 12.6668 20.2779 12.3722L21.4483 5.23918C21.4854 5.01963 21.3088 4.82045 21.0774 4.82045ZM18.0586 8.87663C17.8496 10.0673 16.8676 10.8665 15.6151 10.8665C14.9862 10.8665 14.4836 10.6725 14.1609 10.3046C13.8409 9.93936 13.7192 9.41945 13.821 8.84036C14.0161 7.65991 15.0146 6.83454 16.248 6.83454C16.863 6.83454 17.3629 7.03118 17.6922 7.40218C18.0222 7.777 18.1531 8.30009 18.0586 8.87663Z" fill="white"/>
<path d="M32.6119 4.82043H30.4356C30.2279 4.82043 30.0328 4.91971 29.9151 5.0858L26.9135 9.34053L25.6412 5.25189C25.5612 4.99607 25.3158 4.82043 25.0381 4.82043H22.8995C22.6396 4.82043 22.4591 5.0648 22.5417 5.30025L24.9389 12.0699L22.6852 15.1314C22.508 15.3726 22.6866 15.7042 22.9927 15.7042H25.1664C25.3727 15.7042 25.5658 15.6074 25.6829 15.4445L32.9214 5.38998C33.0946 5.14943 32.9167 4.82043 32.6119 4.82043Z" fill="white"/>
<path d="M39.8172 0.7948H35.294C34.9852 0.7948 34.722 1.01116 34.6737 1.30516L32.8446 12.4651C32.8082 12.6853 32.9854 12.8838 33.2162 12.8838H35.5374C35.7529 12.8838 35.9375 12.7323 35.9712 12.5262L36.4903 9.3628C36.5379 9.06816 36.8018 8.8518 37.1106 8.8518H38.5416C41.5214 8.8518 43.2401 7.46453 43.6898 4.71544C43.8928 3.51271 43.6977 2.56771 43.1124 1.90589C42.4703 1.17916 41.3309 0.7948 39.8172 0.7948ZM40.339 4.87071C40.0923 6.43235 38.8524 6.43234 37.6528 6.43234H36.971L37.4505 3.51589C37.4789 3.33962 37.6363 3.2098 37.8221 3.2098H38.1349C38.9509 3.2098 39.722 3.2098 40.1201 3.6578C40.3575 3.92507 40.4296 4.32216 40.339 4.87071Z" fill="white"/>
<path d="M53.3353 4.82045H51.1709C50.985 4.82045 50.827 4.95027 50.7992 5.12654L50.7033 5.70945L50.5512 5.49818C50.0824 4.84336 49.0375 4.62445 47.994 4.62445C45.6008 4.62445 43.5574 6.36872 43.1593 8.81554C42.953 10.0361 43.246 11.2032 43.9654 12.0171C44.6267 12.7655 45.5697 13.0773 46.6933 13.0773C48.6216 13.0773 49.6909 11.8841 49.6909 11.8841L49.5943 12.4632C49.558 12.6846 49.7352 12.8832 49.9673 12.8832H51.9175C52.2263 12.8832 52.4895 12.6668 52.5377 12.3722L53.7089 5.23918C53.7446 5.01963 53.5674 4.82045 53.3353 4.82045ZM50.3165 8.87663C50.1088 10.0673 49.1255 10.8665 47.873 10.8665C47.2454 10.8665 46.7415 10.6725 46.4188 10.3046C46.0988 9.93936 45.9784 9.41945 46.0789 8.84036C46.2753 7.65991 47.2726 6.83454 48.5059 6.83454C49.1209 6.83454 49.6208 7.03118 49.9501 7.40218C50.2814 7.777 50.4124 8.30009 50.3165 8.87663Z" fill="white"/>
<path d="M55.8883 1.10092L54.0321 12.4651C53.9957 12.6853 54.1729 12.8838 54.4037 12.8838H56.2699C56.58 12.8838 56.8432 12.6675 56.8908 12.3728L58.7213 1.21355C58.7577 0.993371 58.5804 0.794189 58.3497 0.794189H56.26C56.0755 0.794826 55.9168 0.924644 55.8883 1.10092Z" fill="white"/>
</g>
<defs>
<clipPath id="clip0_465_53">
<rect width="59" height="16" fill="white" transform="translate(0 0.5)"/>
</clipPath>
</defs>
</svg>
