<svg width="43" height="13" viewBox="0 0 43 13" fill="none" xmlns="http://www.w3.org/2000/svg">
<path d="M18.6337 12.8124H15.1504L17.3291 0.228088H20.8122L18.6337 12.8124Z" fill="white"/>
<path d="M31.2605 0.535766C30.5734 0.281139 29.4837 0 28.1362 0C24.6964 0 22.274 1.71352 22.2592 4.16335C22.2306 5.97082 23.9935 6.97474 25.312 7.5774C26.6596 8.19324 27.1177 8.5952 27.1177 9.14413C27.104 9.98719 26.0288 10.3758 25.0259 10.3758C23.6352 10.3758 22.89 10.1754 21.7576 9.70641L21.299 9.50534L20.8115 12.3303C21.6285 12.6779 23.1337 12.9865 24.6964 13C28.3513 13 30.7308 11.313 30.7589 8.70232C30.7728 7.26975 29.842 6.17207 27.8351 5.27509C26.6168 4.69929 25.8707 4.31103 25.8707 3.72189C25.8849 3.1863 26.5017 2.63772 27.877 2.63772C29.0094 2.61085 29.8414 2.86513 30.4717 3.11957L30.7868 3.2532L31.2605 0.535766Z" fill="white"/>
<path d="M35.8902 8.35425C36.1771 7.63129 37.2809 4.83325 37.2809 4.83325C37.2664 4.86012 37.5672 4.09695 37.7392 3.62845L37.9826 4.71279C37.9826 4.71279 38.6423 7.72507 38.7855 8.35425C38.2411 8.35425 36.5782 8.35425 35.8902 8.35425ZM40.1899 0.228088H37.4956C36.6647 0.228088 36.0335 0.455491 35.675 1.27222L30.501 12.8123H34.1559C34.1559 12.8123 34.7576 11.2591 34.887 10.9245C35.2879 10.9245 38.8434 10.9245 39.3592 10.9245C39.4592 11.3663 39.7749 12.8123 39.7749 12.8123H43.0001L40.1899 0.228088Z" fill="white"/>
<path d="M12.2406 0.228088L8.82929 8.80941L8.45652 7.06902C7.82584 5.06083 5.8479 2.87898 3.64062 1.7941L6.76525 12.7991H10.4487L15.9239 0.228088H12.2406Z" fill="white"/>
<path d="M5.66163 0.228088H0.0573341L0 0.482359C4.3717 1.52667 7.26699 4.04393 8.45653 7.06955L7.23823 1.28592C7.03765 0.482181 6.42126 0.254601 5.66163 0.228088Z" fill="white"/>
</svg>
