<svg width="44" height="49" viewBox="0 0 44 49" fill="none" xmlns="http://www.w3.org/2000/svg">
<g filter="url(#filter0_d_350_8554)">
<path d="M26.6805 18.7328C27.0852 18.357 27.1086 17.7243 26.7328 17.3195C26.357 16.9148 25.7243 16.8914 25.3195 17.2672L26.6805 18.7328ZM19 24.5L18.3195 23.7672L17.5304 24.5L18.3195 25.2328L19 24.5ZM25.3195 31.7328C25.7243 32.1086 26.357 32.0852 26.7328 31.6805C27.1086 31.2757 27.0852 30.643 26.6805 30.2672L25.3195 31.7328ZM25.3195 17.2672L18.3195 23.7672L19.6805 25.2328L26.6805 18.7328L25.3195 17.2672ZM18.3195 25.2328L25.3195 31.7328L26.6805 30.2672L19.6805 23.7672L18.3195 25.2328Z" fill="white"/>
</g>
<defs>
<filter id="filter0_d_350_8554" x="0.530273" y="0" width="43.4697" height="49" filterUnits="userSpaceOnUse" color-interpolation-filters="sRGB">
<feFlood flood-opacity="0" result="BackgroundImageFix"/>
<feColorMatrix in="SourceAlpha" type="matrix" values="0 0 0 0 0 0 0 0 0 0 0 0 0 0 0 0 0 0 127 0" result="hardAlpha"/>
<feOffset/>
<feGaussianBlur stdDeviation="8.5"/>
<feComposite in2="hardAlpha" operator="out"/>
<feColorMatrix type="matrix" values="0 0 0 0 1 0 0 0 0 1 0 0 0 0 1 0 0 0 0.5 0"/>
<feBlend mode="normal" in2="BackgroundImageFix" result="effect1_dropShadow_350_8554"/>
<feBlend mode="normal" in="SourceGraphic" in2="effect1_dropShadow_350_8554" result="shape"/>
</filter>
</defs>
</svg>
