<svg width="20" height="11" viewBox="0 0 20 11" fill="none" xmlns="http://www.w3.org/2000/svg">
<path d="M18.3356 10.7474C18.7484 11.1143 19.3805 11.0771 19.7474 10.6644C20.1143 10.2516 20.0771 9.61951 19.6644 9.25259L18.3356 10.7474ZM10 2L10.6644 1.25259L10 0.662045L9.33564 1.25259L10 2ZM0.335636 9.25259C-0.0771469 9.61951 -0.114327 10.2516 0.25259 10.6644C0.619508 11.0771 1.25158 11.1143 1.66436 10.7474L0.335636 9.25259ZM19.6644 9.25259L10.6644 1.25259L9.33564 2.74741L18.3356 10.7474L19.6644 9.25259ZM9.33564 1.25259L0.335636 9.25259L1.66436 10.7474L10.6644 2.74741L9.33564 1.25259Z" fill="white"/>
</svg>
