<svg width="82" height="83" viewBox="0 0 82 83" fill="none" xmlns="http://www.w3.org/2000/svg">
<g clip-path="url(#clip0_168_929)">
<path d="M81.1854 34.6432C80.8416 31.5053 78.3033 29.0678 75.1503 28.8474C72.3859 28.6528 69.6194 28.4979 66.9286 28.3874C62.1339 28.1859 57.2781 28.104 52.4727 28.1401C52.7916 21.3006 52.5815 14.4317 51.8359 7.6307C51.5035 4.59034 49.046 2.2283 45.9928 2.01431C35.551 1.28233 24.9672 1.13338 14.5363 1.57192C11.9305 1.6802 9.26987 1.829 6.62834 2.01431C3.57516 2.2283 1.11654 4.59002 0.782109 7.63054C-0.260282 17.1488 -0.260923 26.8047 0.780347 36.3306C1.11542 39.3767 3.57484 41.7424 6.62754 41.9561L7.24227 41.9996C8.11632 42.0581 8.80089 42.7896 8.80089 43.6648V49.3763C8.80089 50.7261 9.55177 51.9363 10.7609 52.535C11.2605 52.7825 11.7956 52.9042 12.3274 52.9042C13.0813 52.9042 13.8283 52.6593 14.4567 52.1806C15.6498 51.2726 16.7852 50.3474 17.8315 49.4309C18.3304 48.9938 18.3807 48.2348 17.9434 47.7358C17.5063 47.2367 16.7473 47.1866 16.2483 47.6237C15.2434 48.504 14.1509 49.3939 13.001 50.2691C12.6551 50.5327 12.2164 50.5747 11.827 50.382C11.4365 50.1885 11.2033 49.8126 11.2033 49.3763V43.6648C11.2033 41.5294 9.53383 39.7449 7.40709 39.6027L6.79604 39.5593C4.90202 39.4268 3.37623 37.9584 3.16865 36.0687C2.14628 26.717 2.14692 17.2369 3.17025 7.89258C3.37751 6.00785 4.9025 4.54357 6.79652 4.41079C9.41547 4.22707 12.0528 4.07955 14.6367 3.97224C24.9781 3.5377 35.4719 3.68505 45.8248 4.41079C47.7179 4.54357 49.2416 6.00753 49.4477 7.8921C50.4728 17.2448 50.4728 26.7285 49.4476 36.0799C49.4054 36.4656 49.3073 36.8394 49.1548 37.1934C48.574 38.5499 47.2969 39.4563 45.8213 39.5593C38.9038 40.0462 31.861 40.2749 24.8868 40.2402C24.8774 40.2402 24.8681 40.2402 24.8588 40.2402C23.522 40.2402 22.2749 40.8885 21.5186 41.9777C20.9876 42.7412 20.3388 43.547 19.5901 44.3732C19.1447 44.8648 19.182 45.6245 19.6736 46.0701C20.165 46.5155 20.9248 46.4783 21.3704 45.9866C22.188 45.0845 22.9014 44.1973 23.4916 43.3489C23.7988 42.9062 24.3091 42.6429 24.8607 42.6429H24.8724C25.7626 42.6474 26.654 42.6474 27.546 42.6434C27.1789 49.8991 27.3935 57.2428 28.1868 64.4948C28.2589 65.1414 28.4237 65.7662 28.6752 66.3477C29.642 68.608 31.7679 70.1179 34.2217 70.2882C41.4852 70.799 48.874 71.0379 56.1818 71.0022H56.1938C56.7816 71.0022 57.328 71.2841 57.6571 71.7582C60.1282 75.3142 64.1246 78.709 67.042 80.9304C67.6873 81.4221 68.454 81.6736 69.228 81.6736C69.7738 81.6736 70.3232 81.5487 70.8359 81.2946C72.0766 80.6802 72.8475 79.4381 72.8475 78.0529V72.1138C72.8475 71.1784 73.5787 70.3961 74.5135 70.3332L74.5404 70.3314C74.7456 70.3173 74.9507 70.3034 75.1509 70.2882C78.3041 70.0681 80.8423 67.6252 81.1868 64.4793C81.2222 64.1552 81.256 63.8312 81.29 63.5054C81.3585 62.8455 80.8793 62.255 80.2192 62.1864C79.5576 62.1174 78.9688 62.5973 78.9002 63.2572C78.8669 63.5786 78.8334 63.8985 78.7985 64.2182C78.5808 66.2075 76.9764 67.7523 74.9773 67.892C74.776 67.9072 74.5762 67.9209 74.3765 67.9345L74.3507 67.9362C72.1606 68.0839 70.445 69.919 70.445 72.114V78.0531C70.445 78.5254 70.1925 78.9324 69.7698 79.1418C69.3478 79.3506 68.8724 79.305 68.4979 79.0194C65.7178 76.9023 61.9225 73.6864 59.6306 70.3878C58.8523 69.2668 57.5692 68.5998 56.1957 68.5998C56.1864 68.5998 56.1773 68.5998 56.168 68.5998C48.9204 68.636 41.5941 68.3982 34.3894 67.8915C32.8379 67.7839 31.495 66.8302 30.8825 65.3988C30.7241 65.032 30.6205 64.6383 30.575 64.231C29.7906 57.0602 29.5826 49.7963 29.9533 42.6213C35.3147 42.5511 40.6889 42.3289 45.989 41.9559C48.3669 41.7901 50.426 40.3276 51.3621 38.1418C51.6083 37.5706 51.7676 36.9647 51.8357 36.3413C52.047 34.4136 52.2134 32.4802 52.3391 30.5436C57.1535 30.5048 62.0218 30.5856 66.8286 30.7875C69.4972 30.8972 72.2402 31.0507 74.982 31.2437C76.9751 31.383 78.5796 32.9224 78.7967 34.9042C79.6553 42.7455 79.8241 50.6905 79.2982 58.518C79.2539 59.18 79.7544 59.7526 80.4162 59.797C80.4438 59.7989 80.4708 59.7999 80.4981 59.7999C81.1247 59.7999 81.6527 59.3136 81.6955 58.679C82.231 50.7115 82.0593 42.6245 81.1854 34.6432Z" fill="#FF7109"/>
<path d="M70.0879 51.9337C70.107 50.9891 69.7479 50.0919 69.0768 49.407C68.9583 49.286 68.8317 49.1741 68.6983 49.0717C69.0465 48.5233 69.2485 47.8732 69.2485 47.1766C69.2485 46.2289 68.8793 45.3386 68.2107 44.6712C67.5427 44.002 66.6526 43.6335 65.7047 43.6335H60.9696L62.7512 39.8384C63.7606 37.69 62.8333 35.1207 60.6842 34.111C60.1069 33.84 59.4922 33.7024 58.8568 33.7024C57.1945 33.7024 55.6636 34.6745 54.9568 36.1791L53.8587 38.519C53.3009 39.7066 52.4277 40.6735 51.334 41.3151C50.2707 41.9384 49.4344 42.8526 48.8982 43.9629C48.5166 43.7898 48.0946 43.691 47.649 43.691H44.0317C42.3579 43.691 40.9963 45.0526 40.9963 46.7265V61.3352C40.9963 63.009 42.3579 64.3706 44.0317 64.3706H47.649C48.2205 64.3706 48.7537 64.209 49.2107 63.9332C50.066 64.4813 51.0606 64.7763 52.1 64.7763H64.864C66.8176 64.7763 68.407 63.1864 68.407 61.2324C68.407 60.7954 68.3283 60.3684 68.1733 59.9627C68.1694 59.952 68.1653 59.9412 68.1611 59.9305C68.0807 59.7276 67.9831 59.5344 67.8688 59.352C68.7076 58.7033 69.2486 57.6871 69.2486 56.5472C69.2486 55.8695 69.0598 55.221 68.7076 54.6623C69.5277 54.0258 70.0663 53.0392 70.0879 51.9337ZM44.0312 61.968C43.6822 61.968 43.3984 61.6842 43.3984 61.3352V46.7265C43.3984 46.3775 43.6822 46.0935 44.0312 46.0935H47.6485C47.9977 46.0935 48.2815 46.3775 48.2815 46.7265V61.3352C48.2815 61.6842 47.9977 61.968 47.6485 61.968H44.0312ZM66.5459 53.0039H65.7044C65.0408 53.0039 64.5031 53.5418 64.5031 54.2052C64.5031 54.8686 65.0408 55.4065 65.7044 55.4065C66.0098 55.4065 66.2961 55.5245 66.5117 55.7404C66.7271 55.9555 66.8458 56.2419 66.8458 56.5471C66.8458 57.1764 66.3339 57.6884 65.7044 57.6884H64.8637C64.2001 57.6884 63.6624 58.2263 63.6624 58.8897C63.6624 59.5531 64.2001 60.091 64.8637 60.091C65.1688 60.091 65.4553 60.2097 65.6706 60.4248C65.7784 60.5326 65.8623 60.6583 65.9205 60.7988C65.9221 60.8029 65.9237 60.8071 65.9253 60.8113C65.9775 60.9449 66.0041 61.0864 66.0041 61.2322C66.0041 61.8615 65.4925 62.3736 64.8637 62.3736H52.0997C51.5698 62.3736 51.0622 62.2325 50.6154 61.9733C50.6596 61.7673 50.6842 61.554 50.6842 61.335C50.6842 61.335 50.6842 46.7081 50.6841 46.7041C50.674 46.1539 50.7816 45.6207 51.0044 45.1194C51.3294 44.3882 51.8632 43.7895 52.5489 43.3878C54.0632 42.4994 55.268 41.1689 56.033 39.5403L57.1311 37.2004C57.4438 36.535 58.121 36.105 58.8563 36.105C59.136 36.105 59.407 36.1657 59.6621 36.2855C60.6122 36.7319 61.0223 37.8673 60.576 38.817L58.0068 44.2902C57.8367 44.6526 57.8581 45.0763 58.0644 45.4195C58.083 45.4503 58.0939 45.4666 58.1054 45.4841C58.3265 45.828 58.7072 46.036 59.1161 46.036H65.7044C66.0098 46.036 66.2961 46.1541 66.5117 46.3701C66.7272 46.5851 66.8458 46.8716 66.8458 47.1766C66.8458 47.8064 66.3339 48.3186 65.7044 48.3186C65.0408 48.3186 64.5031 48.8565 64.5031 49.5199C64.5031 50.1833 65.0408 50.7212 65.7044 50.7212H66.4931C66.8158 50.7212 67.132 50.8551 67.3609 51.0884C67.5765 51.3085 67.6918 51.5914 67.6859 51.8858C67.6738 52.5024 67.1624 53.0039 66.5459 53.0039Z" fill="#FF7109"/>
<path d="M37.4062 16.8156C37.4062 14.3661 36.2071 12.3733 34.7328 12.3733C33.2588 12.3733 32.0596 14.3661 32.0596 16.8156C32.0596 19.2651 33.2588 21.258 34.7328 21.258C36.2071 21.258 37.4062 19.2651 37.4062 16.8156Z" fill="#FF7109"/>
<path d="M20.5597 16.8156C20.5597 14.3661 19.3605 12.3733 17.8863 12.3733C16.4122 12.3733 15.213 14.3661 15.213 16.8156C15.213 19.2651 16.4122 21.258 17.8863 21.258C19.3605 21.258 20.5597 19.2651 20.5597 16.8156Z" fill="#FF7109"/>
<path d="M26.3096 32.635C30.6176 32.635 34.4833 30.0687 36.1577 26.0971C36.4154 25.4858 36.1287 24.7813 35.5175 24.5235C34.9057 24.2661 34.2016 24.5525 33.9438 25.1638C32.6458 28.2429 29.6492 30.2324 26.3096 30.2324C22.9699 30.2324 19.9733 28.2429 18.6753 25.1638C18.4177 24.5525 17.7126 24.2662 17.1016 24.5235C16.4904 24.7812 16.2037 25.4858 16.4614 26.0971C18.1356 30.0687 22.0014 32.635 26.3096 32.635Z" fill="#FF7109"/>
</g>
<defs>
<clipPath id="clip0_168_929">
<rect width="82" height="82" fill="white" transform="translate(0 0.5)"/>
</clipPath>
</defs>
</svg>
