<svg width="82" height="83" viewBox="0 0 82 83" fill="none" xmlns="http://www.w3.org/2000/svg">
<path d="M68.67 62.1238C68.0067 62.1238 67.4689 62.6616 67.4689 63.325C67.4689 63.9883 68.0067 64.5261 68.67 64.5261H68.6829C69.3462 64.5261 69.8776 63.9883 69.8776 63.325C69.8776 62.6616 69.3336 62.1238 68.67 62.1238Z" fill="#FF7109"/>
<path d="M28.8717 62.1238C28.2083 62.1238 27.6705 62.6616 27.6705 63.325C27.6705 63.9883 28.2083 64.5261 28.8717 64.5261H28.8845C29.5479 64.5261 30.0793 63.9883 30.0793 63.325C30.0793 62.6616 29.5352 62.1238 28.8717 62.1238Z" fill="#FF7109"/>
<path d="M80.7492 48.7618L76.9079 46.0155L76.8525 34.3997C76.8438 32.6108 75.5101 31.3122 73.6811 31.3122H64.3568C64.466 30.679 64.3258 30.0563 63.9565 29.5749C63.5517 29.0473 62.9144 28.7446 62.2083 28.7446H53.8377C53.1743 28.7446 52.6365 29.2824 52.6365 29.9458C52.6365 30.6091 53.1743 31.1469 53.8377 31.1469L61.9266 31.1471L53.6263 62.1238H35.3845C35.4092 60.9208 35.0674 59.7933 34.3818 58.8998C33.4361 57.6674 31.9679 56.9885 30.2477 56.9885C27.1561 56.9885 24.0872 59.1818 22.8784 62.1238L17.5989 62.1237L19.9458 53.365C20.1175 52.7242 19.7373 52.0657 19.0963 51.8938C18.4567 51.7228 17.797 52.1023 17.6251 52.7433L15.2172 61.7303C15.027 62.4402 15.1552 63.1567 15.5691 63.6959C15.974 64.2235 16.6112 64.5262 17.3173 64.5262H22.359C22.3343 65.7292 22.6759 66.8566 23.3616 67.7501C24.3073 68.9826 25.7754 69.6613 27.4956 69.6613C30.5872 69.6613 33.6561 67.468 34.865 64.5262H62.1574C62.1327 65.7292 62.4743 66.8566 63.1599 67.7501C64.1056 68.9826 65.5738 69.6613 67.294 69.6613C70.3856 69.6613 73.4545 67.468 74.6633 64.5262H75.0892C77.0458 64.5262 78.9856 63.0073 79.5051 61.0681L81.8675 52.2514C82.2405 50.8587 81.8121 49.5216 80.7492 48.7618ZM32.8467 63.0141C32.2301 65.3151 29.7797 67.259 27.4956 67.259C26.5395 67.259 25.7482 66.9141 25.2674 66.2877C24.7504 65.6141 24.6188 64.6724 24.8966 63.6359C25.5131 61.3348 27.9636 59.3908 30.2477 59.3908C31.2038 59.3908 31.9952 59.7358 32.4759 60.3621C32.9928 61.0359 33.1246 61.9776 32.8467 63.0141ZM74.5027 45.4342H66.7229C66.5198 45.4342 66.2443 45.3908 66.0853 45.1835C65.9452 45.0009 65.9154 44.7075 66.0036 44.3786L67.0355 40.5272C67.2749 39.6337 68.2541 38.8499 69.1308 38.8499H74.4711L74.5027 45.4342ZM72.6451 63.0141C72.0285 65.3151 69.5781 67.259 67.294 67.259C66.3379 67.259 65.5465 66.9141 65.0658 66.2877C64.5488 65.6141 64.4171 64.6724 64.695 63.6359C65.3114 61.3348 67.762 59.3908 70.0461 59.3908C71.0022 59.3908 71.7935 59.7358 72.2743 60.3621C72.7911 61.0359 72.9229 61.9776 72.6451 63.0141ZM77.1845 60.4465C76.9535 61.3083 76.0346 62.066 75.1829 62.1189C75.2064 60.9177 74.8646 59.7922 74.18 58.8999C73.2343 57.6675 71.7661 56.9887 70.0459 56.9887C66.9543 56.9887 63.8854 59.182 62.6766 62.124H56.1133L58.2216 54.2558H72.7056C73.369 54.2558 73.9068 53.718 73.9068 53.0546C73.9068 52.3913 73.369 51.8535 72.7056 51.8535H58.8652L63.7254 33.7147H73.6808C74.0301 33.7147 74.4471 33.8356 74.4498 34.4114L74.4596 36.4477H69.1306C67.174 36.4477 65.2342 37.9666 64.7147 39.9056L63.6828 43.757C63.3998 44.8131 63.5808 45.8661 64.1793 46.646C64.7599 47.4028 65.687 47.8366 66.7227 47.8366H75.3243L79.3518 50.7162C79.6943 50.9609 79.5876 51.4774 79.5467 51.6299L79.4869 51.8535H77.8409C77.1776 51.8535 76.6398 52.3913 76.6398 53.0546C76.6398 53.718 77.1776 54.2558 77.8409 54.2558H78.8432L77.1845 60.4465Z" fill="#FF7109"/>
<path d="M30.729 51.6879C41.3019 51.6879 49.9036 43.0863 49.9036 32.5133C49.9036 21.9402 41.3019 13.3386 30.729 13.3386C20.1561 13.3386 11.5543 21.9404 11.5543 32.5133C11.5543 43.0862 20.1561 51.6879 30.729 51.6879ZM30.729 15.7409C39.9773 15.7409 47.5013 23.265 47.5013 32.5133C47.5013 41.7615 39.9774 49.2856 30.729 49.2856C21.4805 49.2856 13.9567 41.7615 13.9567 32.5133C13.9567 23.265 21.4807 15.7409 30.729 15.7409Z" fill="#FF7109"/>
<path d="M25.5938 38.8495C25.9011 38.8495 26.2086 38.7323 26.4431 38.4977L29.0533 35.8875C29.5584 36.1394 30.1273 36.2819 30.729 36.2819C32.8071 36.2819 34.4977 34.5912 34.4977 32.5132C34.4977 31.9115 34.3552 31.3426 34.1033 30.8375L40.565 24.3759C41.0341 23.9068 41.0341 23.1463 40.565 22.6773C40.0959 22.2081 39.3354 22.2082 38.8664 22.6773L32.4047 29.1389C31.8996 28.887 31.3307 28.7446 30.729 28.7446C28.6508 28.7446 26.9602 30.4354 26.9602 32.5134C26.9602 33.1151 27.1028 33.6839 27.3545 34.1891L24.7443 36.7992C24.2752 37.2683 24.2752 38.0289 24.7443 38.4978C24.979 38.7323 25.2863 38.8495 25.5938 38.8495ZM30.729 31.1468C31.4825 31.1468 32.0954 31.7598 32.0954 32.5132C32.0954 33.2666 31.4823 33.8796 30.729 33.8796C29.9756 33.8796 29.3625 33.2666 29.3625 32.5132C29.3625 31.7598 29.9756 31.1468 30.729 31.1468Z" fill="#FF7109"/>
<path d="M30.729 22.16C31.3924 22.16 31.9302 21.6222 31.9302 20.9589V19.675C31.9302 19.0117 31.3924 18.4739 30.729 18.4739C30.0656 18.4739 29.5278 19.0117 29.5278 19.675V20.9589C29.5278 21.6224 30.0656 22.16 30.729 22.16Z" fill="#FF7109"/>
<path d="M30.729 42.8665C30.0656 42.8665 29.5278 43.4043 29.5278 44.0676V45.3514C29.5278 46.0148 30.0656 46.5526 30.729 46.5526C31.3924 46.5526 31.9302 46.0148 31.9302 45.3514V44.0676C31.9302 43.4043 31.3924 42.8665 30.729 42.8665Z" fill="#FF7109"/>
<path d="M42.2833 33.7144H43.5671C44.2305 33.7144 44.7683 33.1766 44.7683 32.5132C44.7683 31.8498 44.2305 31.312 43.5671 31.312H42.2833C41.62 31.312 41.0822 31.8498 41.0822 32.5132C41.0822 33.1766 41.62 33.7144 42.2833 33.7144Z" fill="#FF7109"/>
<path d="M20.3758 32.5132C20.3758 31.8498 19.838 31.312 19.1747 31.312H17.8909C17.2275 31.312 16.6897 31.8498 16.6897 32.5132C16.6897 33.1766 17.2275 33.7144 17.8909 33.7144H19.1747C19.838 33.7144 20.3758 33.1766 20.3758 32.5132Z" fill="#FF7109"/>
<path d="M14.0393 48.0017H1.20116C0.537798 48.0017 0 48.5395 0 49.2029C0 49.8662 0.537798 50.404 1.20116 50.404H14.0393C14.7027 50.404 15.2405 49.8662 15.2405 49.2029C15.2405 48.5395 14.7027 48.0017 14.0393 48.0017Z" fill="#FF7109"/>
<path d="M12.7556 53.137H5.05257C4.3892 53.137 3.85139 53.6748 3.85139 54.3381C3.85139 55.0015 4.3892 55.5393 5.05257 55.5393H12.7556C13.419 55.5393 13.9568 55.0015 13.9568 54.3381C13.9568 53.6748 13.419 53.137 12.7556 53.137Z" fill="#FF7109"/>
<path d="M11.4717 58.2722H8.90412C8.24075 58.2722 7.70295 58.81 7.70295 59.4734C7.70295 60.1368 8.24075 60.6746 8.90412 60.6746H11.4717C12.1351 60.6746 12.6729 60.1368 12.6729 59.4734C12.6729 58.81 12.1351 58.2722 11.4717 58.2722Z" fill="#FF7109"/>
</svg>
