<svg width="82" height="83" viewBox="0 0 82 83" fill="none" xmlns="http://www.w3.org/2000/svg">
<g clip-path="url(#clip0_168_903)">
<path d="M80.2525 22.5158L65.8952 8.15845C63.8059 6.06888 60.5629 5.82512 58.1844 7.57884L50.4286 13.2974C50.1471 13.505 49.9701 13.8251 49.9438 14.174C49.9176 14.5228 50.0449 14.8657 50.2922 15.1131L52.1612 16.9822L43.9501 25.1933H38.0494L29.8378 16.9817L31.7072 15.1122C31.9546 14.8647 32.0816 14.5218 32.0555 14.173C32.0293 13.8242 31.8521 13.504 31.5706 13.2965L23.8151 7.57916C21.4376 5.82496 18.1947 6.06872 16.1045 8.15909L13.831 10.4327C13.3621 10.9016 13.3621 11.6621 13.831 12.131C14.3 12.5999 15.0604 12.5999 15.5293 12.131L17.8029 9.8574C19.0466 8.61378 20.9752 8.46852 22.3897 9.5121L24.9702 11.4145L5.00267 31.3818L3.10032 28.8021C2.05754 27.3858 2.20264 25.4559 3.4453 24.2133L12.1332 15.5255C12.6021 15.0566 12.6021 14.2963 12.1332 13.8272C11.6644 13.3583 10.904 13.3583 10.4349 13.8272L1.74699 22.515C-0.341621 24.6036 -0.585862 27.8466 1.1669 30.2267L6.88629 37.9827C7.09385 38.2642 7.41401 38.4412 7.76283 38.4675C7.79294 38.4697 7.82289 38.4708 7.85284 38.4708C8.16995 38.4708 8.47585 38.3451 8.70199 38.1191L10.5712 36.2498L11.9657 37.6443C9.01943 40.1807 7.29565 43.883 7.29565 47.8042C7.29565 54.243 11.891 59.7413 18.1255 60.9592C18.8034 64.5518 21.3623 67.4872 24.7376 68.698V73.0115C24.7376 74.9842 26.3417 76.589 28.3136 76.589C29.865 76.589 31.1886 75.596 31.6832 74.2124H33.4024C33.8969 75.596 35.2196 76.589 36.7704 76.589C38.3218 76.589 39.6454 75.596 40.14 74.2124H41.8597C42.3541 75.5957 43.6773 76.5885 45.2285 76.5885C46.7796 76.5885 48.1027 75.5957 48.5971 74.2124H50.317C50.8114 75.5957 52.1346 76.5885 53.6856 76.5885C55.6578 76.5885 57.2622 74.984 57.2622 73.0118V63.5709C59.1457 63.3108 60.8385 62.4488 62.1409 61.185C64.5415 61.0345 66.8483 60.2433 68.8403 58.8829C69.3881 58.5088 69.5289 57.7616 69.1547 57.2139C68.7809 56.6663 68.0335 56.5254 67.4859 56.8995C66.4308 57.6201 65.2677 58.1444 64.0462 58.4599C64.4317 57.5944 64.6802 56.6559 64.7648 55.6705C67.8658 54.3075 69.8966 51.2458 69.8966 47.8043C69.8966 45.1383 68.6722 42.6706 66.6223 41.0559L68.3302 39.348C70.8337 41.432 72.3021 44.5251 72.3021 47.804C72.3021 49.9504 71.6809 52.0314 70.5057 53.8219C70.1418 54.3764 70.2962 55.1208 70.8506 55.4848C71.0539 55.6182 71.2824 55.6818 71.5086 55.6818C71.8995 55.6818 72.2829 55.4911 72.5136 55.1399C73.9465 52.9568 74.7039 50.42 74.7039 47.8042C74.7039 43.8822 72.9799 40.1802 70.0335 37.6451L71.4288 36.2498L73.298 38.119C73.524 38.3449 73.8299 38.4707 74.147 38.4707C74.1769 38.4707 74.2069 38.4695 74.237 38.4673C74.5858 38.441 74.906 38.2641 75.1135 37.9825L80.8321 30.2269C82.5859 27.8481 82.3421 24.6052 80.2525 22.5158V22.5158ZM60.8911 33.6073C60.8911 33.3059 61.0085 33.0224 61.2216 32.8093L64.6051 29.4258L66.2011 31.0217L62.8176 34.4052C62.6044 34.6184 62.3211 34.7358 62.0197 34.7358C61.7183 34.7358 61.4348 34.6184 61.2216 34.4052C61.0085 34.1922 60.8911 33.9087 60.8911 33.6073V33.6073ZM57.9182 22.739L58.9852 23.806L55.6017 27.1895C55.3885 27.4027 55.1052 27.5201 54.8037 27.5201C54.5022 27.5201 54.2189 27.4027 54.0056 27.1895C53.5656 26.7495 53.5656 26.0335 54.0056 25.5935L57.3891 22.21L57.9182 22.739ZM53.8597 18.6805L55.6909 20.5117L52.3074 23.8952C50.931 25.2716 50.931 27.5112 52.3074 28.8876C52.9742 29.5544 53.8608 29.9216 54.8037 29.9216C55.7467 29.9216 56.6331 29.5544 57.2999 28.8876L60.6834 25.5042L62.9068 27.7276L59.5233 31.1111C58.8566 31.7778 58.4894 32.6645 58.4894 33.6073C58.4894 34.5502 58.8566 35.4368 59.5233 36.1035C60.1901 36.7703 61.0765 37.1375 62.0195 37.1375C62.9626 37.1375 63.849 36.7703 64.5158 36.1035L67.8993 32.72L69.7305 34.5513L62.0168 42.2651L46.1459 26.3943L53.8597 18.6805ZM48.805 63.6561H50.109V71.8107H48.805V63.6561ZM40.5618 61.2544L47.331 54.6089C47.3275 54.7114 47.3232 54.8139 47.3232 54.9172C47.3232 57.4102 48.3743 59.6609 50.0545 61.2544H40.5618ZM31.891 68.6C32.3419 68.4243 32.7772 68.2182 33.1946 67.9829V71.8107H31.891V68.6ZM40.348 63.6561H41.6518V71.8107H40.348V63.6561ZM38.3776 60.033C38.4082 59.7116 38.4253 59.3863 38.4253 59.057C38.4253 53.4108 33.8317 48.8172 28.1855 48.8172C27.9643 48.8172 27.7454 48.8266 27.5275 48.8405L34.2226 42.2938C34.4731 45.815 37.416 48.604 40.9998 48.604C44.7475 48.604 47.7964 45.5551 47.7964 41.8074C47.7964 41.6469 47.7889 41.4884 47.7779 41.3308L54.6656 46.292C52.8161 46.5902 51.1586 47.4696 49.8889 48.738L49.8903 48.7307L38.3776 60.033ZM17.0915 42.7703L18.9297 44.6084L21.1811 51.5977C20.4769 52.2594 19.8659 53.0186 19.3706 53.8548C16.5877 53.2369 14.5039 50.7155 14.5039 47.8043C14.504 45.7876 15.4771 43.9272 17.0915 42.7703V42.7703ZM40.9998 37.4125C43.4232 37.4125 45.3947 39.384 45.3947 41.8074C45.3947 44.2307 43.4232 46.2023 40.9998 46.2023C38.5765 46.2023 36.605 44.2307 36.605 41.8074C36.605 39.384 38.5765 37.4125 40.9998 37.4125ZM59.7657 47.0056C59.7657 47.0056 45.248 36.5015 45.0789 36.3742C43.9419 35.5185 42.529 35.0108 40.9998 35.0108C39.2314 35.0108 37.6189 35.6903 36.4086 36.8012L23.1219 49.7893L21.3514 44.2932L38.0496 27.595H43.9503L60.6483 44.293L59.7738 47.0091C59.7711 47.008 59.7684 47.0069 59.7657 47.0056V47.0056ZM17.3947 29.4259L20.7782 32.8094C20.9914 33.0226 21.1088 33.3059 21.1088 33.6073C21.1088 33.9087 20.9914 34.1922 20.7782 34.4052C20.565 34.6184 20.2817 34.7358 19.9801 34.7358C19.6787 34.7358 19.3954 34.6184 19.1822 34.4052L15.7987 31.0217L17.3947 29.4259ZM7.99073 35.4338L6.44425 33.3367L26.9252 12.8557L29.0218 14.4012L7.99073 35.4338ZM14.1006 32.7202L17.4839 36.1035C18.1506 36.7703 19.0371 37.1375 19.9801 37.1375C20.9231 37.1375 21.8096 36.7703 22.4763 36.1035C23.1431 35.4368 23.5103 34.5502 23.5103 33.6073C23.5103 32.6645 23.1431 31.7778 22.4763 31.1111L19.0929 27.7276L19.1207 27.6998L21.3163 25.5042L24.6998 28.8876C25.3665 29.5544 26.253 29.9216 27.196 29.9216C28.139 29.9216 29.0255 29.5544 29.6922 28.8876C31.0686 27.5112 31.0686 25.2716 29.6922 23.8952L26.3088 20.5117L28.14 18.6805L35.8538 26.3943L19.9828 42.2651L12.2693 34.5516L14.1006 32.7202ZM24.6106 22.21L27.9941 25.5935C28.434 26.0335 28.434 26.7495 27.9941 27.1895C27.7809 27.4027 27.4974 27.5201 27.196 27.5201C26.8946 27.5201 26.6111 27.4027 26.398 27.1895L23.0146 23.806L24.6106 22.21ZM9.69737 47.8042C9.69737 44.5261 11.1657 41.4326 13.6688 39.3474L15.377 41.0556C13.3269 42.6705 12.1021 45.1382 12.1021 47.8042C12.1021 49.9597 12.9066 52.023 14.3674 53.614C15.4635 54.8079 16.8555 55.657 18.3866 56.0853C18.1558 56.8446 18.0111 57.6407 17.9639 58.4628C13.1664 57.2325 9.69737 52.8733 9.69737 47.8042V47.8042ZM20.3474 59.057C20.3474 54.7351 23.8636 51.2189 28.1855 51.2189C32.5073 51.2189 36.0236 54.735 36.0236 59.057C36.0236 63.379 32.5073 66.8951 28.1855 66.8951C23.8636 66.8951 20.3474 63.379 20.3474 59.057ZM28.3136 74.1872C27.6662 74.1872 27.1393 73.6598 27.1393 73.0115V69.2438C27.4833 69.2789 27.8322 69.2968 28.1853 69.2968C28.6274 69.2968 29.0619 69.2656 29.4893 69.211V73.0115C29.4893 73.6598 28.9619 74.1872 28.3136 74.1872V74.1872ZM36.7704 74.1872C36.123 74.1872 35.5963 73.6598 35.5963 73.0115V66.1291L37.9463 63.822V73.0114C37.9463 73.6598 37.4189 74.1872 36.7704 74.1872ZM45.2285 74.1868C44.5806 74.1868 44.0536 73.6597 44.0536 73.0118V63.6561H46.4032V73.0118C46.4032 73.6597 45.8763 74.1868 45.2285 74.1868ZM53.6856 74.1868C53.0378 74.1868 52.5108 73.6597 52.5108 73.0118V63.6561H54.8605V73.0118C54.8605 73.6597 54.3334 74.1868 53.6856 74.1868ZM56.0614 61.2537C52.5675 61.2537 49.7249 58.4112 49.7249 54.9172C49.7249 51.4234 52.5674 48.5808 56.0614 48.5808C59.5552 48.5808 62.3978 51.4232 62.3978 54.9172C62.3978 58.4112 59.5552 61.2537 56.0614 61.2537ZM67.4949 47.8043C67.4949 49.9745 66.3742 51.9356 64.5965 53.0501C64.1948 51.2126 63.2138 49.5899 61.8544 48.3835L63.0697 44.6087L64.9078 42.7706C66.5219 43.9271 67.4949 45.7875 67.4949 47.8043V47.8043ZM74.0089 35.4333L52.9777 14.402L55.0746 12.8559L75.5551 33.3363L74.0089 35.4333ZM78.899 28.8012L76.9965 31.3813L57.0295 11.4143L59.6097 9.51178C61.0248 8.46836 62.9539 8.61346 64.1969 9.8566L78.5542 24.2139C79.7974 25.4571 79.9423 27.3863 78.899 28.8012V28.8012Z" fill="#FF7109"/>
<path d="M31.8099 59.0571C31.8099 57.0585 30.184 55.4326 28.1854 55.4326C26.1869 55.4326 24.561 57.0585 24.561 59.0571C24.561 61.0557 26.1869 62.6816 28.1854 62.6816C30.184 62.6816 31.8099 61.0557 31.8099 59.0571ZM26.9627 59.0571C26.9627 58.3829 27.5112 57.8343 28.1854 57.8343C28.8597 57.8343 29.4082 58.3829 29.4082 59.0571C29.4082 59.7314 28.8597 60.2799 28.1854 60.2799C27.5112 60.2799 26.9627 59.7314 26.9627 59.0571Z" fill="#FF7109"/>
<path d="M56.0613 51.2927C54.0628 51.2927 52.4368 52.9186 52.4368 54.9172C52.4368 56.9158 54.0628 58.5417 56.0613 58.5417C58.0599 58.5417 59.6858 56.9158 59.6858 54.9172C59.6858 52.9186 58.0599 51.2927 56.0613 51.2927ZM56.0613 56.14C55.3871 56.14 54.8385 55.5915 54.8385 54.9172C54.8385 54.243 55.3871 53.6944 56.0613 53.6944C56.7356 53.6944 57.2841 54.243 57.2841 54.9172C57.2841 55.5915 56.7356 56.14 56.0613 56.14Z" fill="#FF7109"/>
</g>
<defs>
<clipPath id="clip0_168_903">
<rect width="82" height="82" fill="white" transform="translate(0 0.5)"/>
</clipPath>
</defs>
</svg>
