<svg width="24" height="25" viewBox="0 0 24 25" fill="none" xmlns="http://www.w3.org/2000/svg">
<path d="M8 12.4458L8 8.4458C8 6.23666 9.79086 4.4458 12 4.4458V4.4458C14.2091 4.4458 16 6.23666 16 8.4458L16 12.4458" stroke="white" stroke-linecap="round"/>
<path d="M3.69435 13.1136C3.83942 11.3727 3.91196 10.5023 4.48605 9.97404C5.06013 9.4458 5.9336 9.4458 7.68053 9.4458H16.3195C18.0664 9.4458 18.9399 9.4458 19.514 9.97404C20.088 10.5023 20.1606 11.3727 20.3057 13.1136L20.8195 19.2797C20.904 20.2932 20.9462 20.8 20.6491 21.1229C20.352 21.4458 19.8435 21.4458 18.8264 21.4458H5.1736C4.15655 21.4458 3.64802 21.4458 3.35092 21.1229C3.05382 20.8 3.09605 20.2932 3.18051 19.2797L3.69435 13.1136Z" stroke="white"/>
</svg>
