<svg width="23" height="23" viewBox="0 0 23 23" fill="none" xmlns="http://www.w3.org/2000/svg">
<path d="M8 9.25L12.3573 12.4596C12.773 12.7658 13.3535 12.7052 13.697 12.3197L22 3" stroke="white" stroke-width="2" stroke-linecap="round"/>
<path d="M22 11.5C22 13.6939 21.3128 15.8327 20.0349 17.616C18.757 19.3993 16.9526 20.7376 14.8751 21.4428C12.7976 22.148 10.5514 22.1847 8.45201 21.5479C6.35257 20.911 4.50536 19.6325 3.16979 17.892C1.83422 16.1515 1.0774 14.0363 1.00562 11.8436C0.933839 9.65082 1.5507 7.49068 2.76957 5.66651C3.98844 3.84235 5.74808 2.44579 7.80137 1.67299C9.85466 0.900184 12.0984 0.789954 14.2176 1.35778" stroke="#FF7109" stroke-width="2" stroke-linecap="round"/>
</svg>
