<svg width="24" height="25" viewBox="0 0 24 25" fill="none" xmlns="http://www.w3.org/2000/svg">
<path d="M3.5 9.8438C3.5 8.81872 3.5 8.30618 3.70266 7.91605C3.87343 7.58729 4.14149 7.31923 4.47025 7.14846C4.86038 6.9458 5.37292 6.9458 6.398 6.9458H17.602C18.6271 6.9458 19.1396 6.9458 19.5298 7.14846C19.8585 7.31923 20.1266 7.58729 20.2973 7.91605C20.5 8.30618 20.5 8.81872 20.5 9.8438V16.0478C20.5 17.0729 20.5 17.5854 20.2973 17.9756C20.1266 18.3043 19.8585 18.5724 19.5298 18.7431C19.1396 18.9458 18.6271 18.9458 17.602 18.9458H6.398C5.37292 18.9458 4.86038 18.9458 4.47025 18.7431C4.14149 18.5724 3.87343 18.3043 3.70266 17.9756C3.5 17.5854 3.5 17.0729 3.5 16.0478V9.8438Z" stroke="white"/>
<path d="M3.5 10.9458L20.5 10.9458" stroke="white" stroke-linecap="round"/>
<circle cx="6.5" cy="15.9458" r="0.5" fill="white"/>
</svg>
