<svg width="16" height="16" viewBox="0 0 16 16" fill="none" xmlns="http://www.w3.org/2000/svg">
<path d="M8 10L7.64645 10.3536L8 10.7071L8.35355 10.3536L8 10ZM8.5 1C8.5 0.723858 8.27614 0.5 8 0.5C7.72386 0.5 7.5 0.723858 7.5 1L8.5 1ZM3 15V14.5V15ZM13 15V15.5V15ZM2.64645 5.35355L7.64645 10.3536L8.35355 9.64645L3.35355 4.64645L2.64645 5.35355ZM8.35355 10.3536L13.3536 5.35355L12.6464 4.64645L7.64645 9.64645L8.35355 10.3536ZM8.5 10L8.5 1L7.5 1L7.5 10H8.5ZM3 15.5L13 15.5V14.5L3 14.5V15.5ZM1.5 13V12H0.5V13H1.5ZM15.5 13V12H14.5V13H15.5ZM13 15.5C14.3807 15.5 15.5 14.3807 15.5 13H14.5C14.5 13.8284 13.8284 14.5 13 14.5V15.5ZM3 14.5C2.17157 14.5 1.5 13.8284 1.5 13H0.5C0.5 14.3807 1.61929 15.5 3 15.5V14.5Z" fill="white"/>
</svg>
