<svg width="20" height="21" viewBox="0 0 20 21" fill="none" xmlns="http://www.w3.org/2000/svg">
<path fill-rule="evenodd" clip-rule="evenodd" d="M10.4017 20.8353C12.1737 19.9348 19.2007 15.9391 19.2007 9.20094C19.2007 4.1194 15.0813 0 9.99976 0C4.91823 0 0.798828 4.1194 0.798828 9.20094C0.798828 15.9391 7.82582 19.9348 9.59783 20.8353C9.85177 20.9643 10.1478 20.9643 10.4017 20.8353ZM9.99976 13.1442C12.1776 13.1442 13.943 11.3787 13.943 9.20094C13.943 7.02313 12.1776 5.25768 9.99976 5.25768C7.82196 5.25768 6.05651 7.02313 6.05651 9.20094C6.05651 11.3787 7.82196 13.1442 9.99976 13.1442Z" fill="#FF7109"/>
</svg>
