<svg width="23" height="26" viewBox="0 0 23 26" fill="none" xmlns="http://www.w3.org/2000/svg">
<path d="M1 12.9629C1 10.9828 1 9.9928 1.40026 9.12256C1.80051 8.25231 2.5522 7.60801 4.05558 6.3194L5.51391 5.0694C8.23125 2.74026 9.58992 1.57568 11.2083 1.57568C12.8268 1.57568 14.1854 2.74026 16.9028 5.0694L18.3611 6.3194C19.8645 7.60801 20.6162 8.25231 21.0164 9.12256C21.4167 9.9928 21.4167 10.9828 21.4167 12.9629V19.1468C21.4167 21.8967 21.4167 23.2716 20.5624 24.1259C19.7081 24.9801 18.3332 24.9801 15.5833 24.9801H6.83333C4.08347 24.9801 2.70854 24.9801 1.85427 24.1259C1 23.2716 1 21.8967 1 19.1468V12.9629Z" stroke="white" stroke-width="1.5"/>
<path d="M14.6579 24.6528V16.9028C14.6579 16.3505 14.2102 15.9028 13.6579 15.9028H8.36621C7.81393 15.9028 7.36621 16.3505 7.36621 16.9028V24.6528" stroke="white" stroke-width="1.5" stroke-linecap="round" stroke-linejoin="round"/>
</svg>
