<svg width="25" height="25" viewBox="0 0 25 25" fill="none" xmlns="http://www.w3.org/2000/svg">
<path d="M5.97363 13.2595C5.97363 11.9018 5.97363 11.2229 6.24809 10.6262C6.52256 10.0294 7.038 9.58763 8.06888 8.70401L9.06888 7.84687C10.9322 6.24974 11.8639 5.45117 12.9736 5.45117C14.0834 5.45117 15.0151 6.24974 16.8784 7.84687L17.8784 8.70401C18.9093 9.58763 19.4247 10.0294 19.6992 10.6262C19.9736 11.2229 19.9736 11.9018 19.9736 13.2595V17.4999C19.9736 19.3856 19.9736 20.3284 19.3878 20.9142C18.8021 21.4999 17.8593 21.4999 15.9736 21.4999H9.97363C8.08801 21.4999 7.14521 21.4999 6.55942 20.9142C5.97363 20.3284 5.97363 19.3856 5.97363 17.4999V13.2595Z" stroke="white" stroke-width="1.5"/>
<path d="M15.4736 21.5V16.5C15.4736 15.9477 15.0259 15.5 14.4736 15.5H11.4736C10.9213 15.5 10.4736 15.9477 10.4736 16.5V21.5" stroke="white" stroke-width="1.5" stroke-linecap="round" stroke-linejoin="round"/>
</svg>
