<svg width="24" height="25" viewBox="0 0 24 25" fill="none" xmlns="http://www.w3.org/2000/svg">
<path d="M3 8.4458C3 7.50299 3 7.03159 3.29289 6.73869C3.58579 6.4458 4.05719 6.4458 5 6.4458H15.9296C16.4536 6.4458 16.7156 6.4458 16.9367 6.56413C17.1578 6.68245 17.3031 6.90043 17.5937 7.3364L20.2604 11.3364C20.6189 11.8742 20.7981 12.143 20.7981 12.4458C20.7981 12.7486 20.6189 13.0175 20.2604 13.5552L17.5937 17.5552C17.3031 17.9912 17.1578 18.2091 16.9367 18.3275C16.7156 18.4458 16.4536 18.4458 15.9296 18.4458H5C4.05719 18.4458 3.58579 18.4458 3.29289 18.1529C3 17.86 3 17.3886 3 16.4458V8.4458Z" stroke="white"/>
<circle cx="15" cy="12.4458" r="1" fill="white" stroke="white"/>
</svg>
