<svg width="30" height="26" viewBox="0 0 30 26" fill="none" xmlns="http://www.w3.org/2000/svg">
<path d="M3.49959 14.6132L14.091 24.4367C14.4558 24.7751 14.6382 24.9442 14.8533 24.9859C14.9502 25.0047 15.0498 25.0047 15.1467 24.9859C15.3618 24.9442 15.5442 24.7751 15.909 24.4367L26.5004 14.6132C29.4804 11.8493 29.8423 7.30095 27.336 4.1115L26.8647 3.51179C23.8664 -0.30369 17.8481 0.336196 15.7414 4.69446C15.4438 5.31009 14.5562 5.31009 14.2586 4.69446C12.1519 0.336196 6.13357 -0.303684 3.13531 3.5118L2.66404 4.11151C0.157736 7.30095 0.519614 11.8493 3.49959 14.6132Z" fill="white" stroke="white" stroke-width="2"/>
</svg>
