<svg width="16" height="14" viewBox="0 0 16 14" fill="none" xmlns="http://www.w3.org/2000/svg">
<path d="M2.2498 7.75483L7.54549 12.6666C7.72791 12.8358 7.81912 12.9204 7.92666 12.9412C7.97509 12.9506 8.02491 12.9506 8.07334 12.9412C8.18088 12.9204 8.27209 12.8358 8.45451 12.6666L13.7502 7.75483C15.2402 6.37287 15.4211 4.09872 14.168 2.50399L13.9323 2.20414C12.4332 0.296397 9.42407 0.61634 8.37069 2.79547C8.22189 3.10329 7.77811 3.10329 7.62931 2.79547C6.57593 0.61634 3.56678 0.2964 2.06765 2.20414L1.83202 2.504C0.578868 4.09872 0.759807 6.37287 2.2498 7.75483Z" stroke="white"/>
</svg>
