<svg width="24" height="25" viewBox="0 0 24 25" fill="none" xmlns="http://www.w3.org/2000/svg">
<path d="M17 18.876H13L8.54999 21.836C7.88999 22.276 7 21.806 7 21.006V18.876C4 18.876 2 16.876 2 13.876V7.87598C2 4.87598 4 2.87598 7 2.87598H17C20 2.87598 22 4.87598 22 7.87598V13.876C22 16.876 20 18.876 17 18.876Z" stroke="white" stroke-miterlimit="10" stroke-linecap="round" stroke-linejoin="round"/>
<path d="M11.9998 11.8057V11.5957C11.9998 10.9157 12.4198 10.5557 12.8398 10.2657C13.2498 9.98569 13.6598 9.6257 13.6598 8.9657C13.6598 8.0457 12.9198 7.30566 11.9998 7.30566C11.0798 7.30566 10.3398 8.0457 10.3398 8.9657" stroke="white" stroke-linecap="round" stroke-linejoin="round"/>
<path d="M11.9955 14.1958H12.0045" stroke="white" stroke-linecap="round" stroke-linejoin="round"/>
</svg>
