<svg width="19" height="19" viewBox="0 0 19 19" fill="none" xmlns="http://www.w3.org/2000/svg">
<path d="M17.1236 12.6167C17.6856 11.504 17.9769 10.2743 17.9736 9.02779V8.55557C17.865 6.58702 17.0341 4.7277 15.64 3.33361C14.2459 1.93952 12.3866 1.10863 10.4181 1.00003H9.94584C8.6993 0.996777 7.46962 1.28802 6.35696 1.85003C5.02364 2.51639 3.90219 3.54081 3.1182 4.80854C2.33421 6.07627 1.91865 7.53723 1.91808 9.02779C1.91483 10.2743 2.20607 11.504 2.76807 12.6167L0.973633 18L6.35696 16.2056C7.46962 16.7676 8.6993 17.0588 9.94584 17.0556C11.4364 17.055 12.8974 16.6394 14.1651 15.8554C15.4328 15.0714 16.4572 13.95 17.1236 12.6167Z" stroke="white" stroke-width="1.5" stroke-linecap="round" stroke-linejoin="round"/>
</svg>
