<svg width="15" height="16" viewBox="0 0 15 16" fill="none" xmlns="http://www.w3.org/2000/svg">
<path d="M14 7.5632L7.8539 13.8056C7.10095 14.5704 6.07974 15 5.01492 15C3.9501 15 2.92889 14.5704 2.17594 13.8056C1.423 13.0409 1 12.0037 1 10.9222C1 9.84064 1.423 8.80342 2.17594 8.03868L8.32204 1.79625C8.82401 1.28642 9.50481 1 10.2147 1C10.9246 1 11.6054 1.28642 12.1073 1.79625C12.6093 2.30608 12.8913 2.99756 12.8913 3.71856C12.8913 4.43957 12.6093 5.13105 12.1073 5.64088L5.95456 11.8833C5.70358 12.1382 5.36317 12.2814 5.00823 12.2814C4.65329 12.2814 4.31289 12.1382 4.06191 11.8833C3.81093 11.6284 3.66993 11.2827 3.66993 10.9222C3.66993 10.5616 3.81093 10.2159 4.06191 9.961L9.73986 4.20084" stroke="#8C8C8C" stroke-linecap="round" stroke-linejoin="round"/>
</svg>
