<svg width="25" height="17" viewBox="0 0 25 17" fill="none" xmlns="http://www.w3.org/2000/svg">
<path d="M24.7374 7.52001C24.4423 6.79898 24.1121 6.5604 22.0664 4.39202C23.0668 3.33168 22.1314 1.07316 20.3157 1.07316H19.9806C19.7255 1.07316 19.8706 1.24812 19.4254 0.304421C19.2404 -0.0932053 19.1803 0.0128282 15.9792 0.0128282C15.8465 0.0128282 15.7193 0.0686852 15.6255 0.168111C15.5317 0.267537 15.479 0.402387 15.479 0.542996C15.479 0.683606 15.5317 0.818456 15.6255 0.917882C15.7193 1.01731 15.8465 1.07316 15.9792 1.07316H18.6701L18.7952 1.33295C18.2892 1.5616 17.8523 1.93325 17.5321 2.40729C17.2119 2.88132 17.0207 3.43952 16.9795 4.0209L15.7741 5.31451H8.68149C7.54607 4.11103 7.85119 4.25417 6.97587 4.25417C6.97587 3.69174 6.76508 3.15233 6.38987 2.75463C6.01466 2.35693 5.50576 2.1335 4.97513 2.1335H1.47385C1.3412 2.1335 1.21397 2.18936 1.12017 2.28878C1.02637 2.38821 0.973669 2.52306 0.973669 2.66367C0.973669 2.80428 1.02637 2.93913 1.12017 3.03855C1.21397 3.13798 1.3412 3.19384 1.47385 3.19384H2.9744V4.25417H1.47385C1.3412 4.25417 1.21397 4.31003 1.12017 4.40946C1.02637 4.50888 0.973669 4.64373 0.973669 4.78434V7.43518C0.973669 7.73208 0.938656 7.61544 3.04943 9.85275C2.64599 10.3074 2.34219 10.8508 2.1597 11.4442C1.97721 12.0376 1.92053 12.6664 1.9937 13.2857C2.06687 13.905 2.2681 14.4996 2.58301 15.027C2.89793 15.5543 3.31878 16.0016 3.81553 16.3367C4.31228 16.6718 4.8727 16.8866 5.45679 16.9658C6.04088 17.0449 6.63425 16.9864 7.19456 16.7945C7.75487 16.6026 8.26832 16.282 8.69827 15.8555C9.12822 15.429 9.46407 14.9072 9.68186 14.3274H16.2843C17.9199 18.6217 23.9821 17.3864 23.9821 12.7369C23.9805 12.2577 23.901 11.7824 23.747 11.3319C24.2004 10.9829 24.551 10.5047 24.7582 9.95291C24.9654 9.40109 25.0206 8.79829 24.9174 8.21453C24.9755 8.096 24.9891 7.95864 24.9558 7.82988C24.9224 7.70113 24.8444 7.59046 24.7374 7.52001ZM23.5169 7.43518H22.2314C22.0498 7.43341 21.875 7.36187 21.7394 7.23383C21.6037 7.10579 21.5165 6.92995 21.4939 6.73893C21.4713 6.54792 21.5149 6.35469 21.6164 6.19512C21.718 6.03554 21.8708 5.92045 22.0464 5.87119C23.4519 7.36096 23.4219 7.31854 23.5169 7.43518ZM19.2454 2.28725C19.5405 2.91285 19.6105 3.19384 19.9806 3.19384C20.0659 3.19356 20.1497 3.17019 20.224 3.12594C20.2984 3.08169 20.3608 3.01803 20.4054 2.94101C20.45 2.86399 20.4753 2.77616 20.4789 2.68586C20.4824 2.59556 20.4642 2.5058 20.4258 2.42509C20.2757 2.10169 20.2657 2.1335 20.3157 2.1335C21.4462 2.1335 21.8163 3.724 21.1461 3.724H18.0449C18.1243 3.40135 18.2744 3.10309 18.483 2.85345C18.6916 2.60381 18.9528 2.40983 19.2454 2.28725ZM14.7837 6.37485L13.7834 7.43518H10.7673L9.72187 6.37485H14.7837ZM3.97477 3.19384H4.97513C5.24045 3.19384 5.49489 3.30555 5.6825 3.5044C5.8701 3.70325 5.9755 3.97295 5.9755 4.25417H3.97477V3.19384ZM3.05943 8.36828L2.17911 7.43518H3.88974C3.82003 7.64329 3.71021 7.83373 3.56726 7.99438C3.42431 8.15503 3.25136 8.28236 3.05943 8.36828ZM5.9755 15.9179C5.38194 15.9179 4.80171 15.7313 4.30818 15.3818C3.81465 15.0322 3.42999 14.5354 3.20285 13.9542C2.9757 13.3729 2.91627 12.7333 3.03207 12.1163C3.14786 11.4992 3.43369 10.9324 3.8534 10.4875C4.27311 10.0427 4.80786 9.73972 5.39001 9.61698C5.97217 9.49424 6.57559 9.55723 7.12397 9.79799C7.67235 10.0388 8.14106 10.4465 8.47082 10.9696C8.80059 11.4927 8.9766 12.1077 8.9766 12.7369C8.9766 13.5805 8.66041 14.3896 8.0976 14.9862C7.53478 15.5827 6.77144 15.9179 5.9755 15.9179ZM9.94195 13.267C10.0083 12.7354 9.97597 12.1951 9.84692 11.6765C16.7845 11.6765 16.1142 11.65 16.0942 11.7348C15.9782 12.2358 15.9494 12.7551 16.0092 13.267H9.94195ZM19.9806 15.9179C19.3871 15.9179 18.8068 15.7313 18.3133 15.3818C17.8198 15.0322 17.4351 14.5354 17.208 13.9542C16.9808 13.3729 16.9214 12.7333 17.0372 12.1163C17.153 11.4992 17.4388 10.9324 17.8585 10.4875C18.2782 10.0427 18.813 9.73972 19.3951 9.61698C19.9773 9.49424 20.5807 9.55723 21.1291 9.79799C21.6775 10.0388 22.1462 10.4465 22.476 10.9696C22.8057 11.4927 22.9817 12.1077 22.9817 12.7369C22.9817 13.5805 22.6655 14.3896 22.1027 14.9862C21.5399 15.5827 20.7766 15.9179 19.9806 15.9179ZM23.2868 10.367C22.9063 9.77645 22.3911 9.29747 21.789 8.97461C21.187 8.65174 20.5177 8.49548 19.8434 8.52034C19.1691 8.54521 18.5117 8.75039 17.9323 9.11682C17.3528 9.48325 16.8703 9.99903 16.5294 10.6162H9.43677C9.08591 9.97206 8.58142 9.43705 7.97391 9.06484C7.36639 8.69262 6.67721 8.49628 5.9755 8.49552C5.20977 8.52455 4.46184 8.7482 3.7947 9.14762C4.15658 8.91272 4.45528 8.58299 4.66203 8.1902C4.86879 7.79741 4.97661 7.3548 4.97513 6.90501C4.97513 6.7644 4.92244 6.62955 4.82863 6.53013C4.73483 6.4307 4.60761 6.37485 4.47495 6.37485H1.97404V5.31451H7.27097C8.37638 6.48618 7.72114 5.81287 10.2221 8.34707C10.4321 8.55914 10.3571 8.49552 14.0134 8.49552C14.3386 8.49552 14.1235 8.56444 17.6848 4.78434H21.026C21.4111 5.19787 21.3311 4.9646 20.991 5.31451C20.7441 5.57447 20.5757 5.90633 20.5072 6.26794C20.4386 6.62955 20.4729 7.0046 20.6059 7.34547C20.7388 7.68634 20.9643 7.97766 21.2537 8.18242C21.5432 8.38719 21.8835 8.49616 22.2314 8.49552H23.9821C24.0275 8.84449 23.9874 9.19998 23.8657 9.52776C23.7439 9.85554 23.5446 10.1446 23.2868 10.367Z" fill="white"/>
</svg>
