<svg width="24" height="25" viewBox="0 0 24 25" fill="none" xmlns="http://www.w3.org/2000/svg">
<path d="M14.1361 3.80724L14.6337 3.75749L14.1361 3.80724ZM13.9838 2.98741L13.5394 3.21661V3.21661L13.9838 2.98741ZM14.4311 5.26373L14.8286 4.96047V4.96047L14.4311 5.26373ZM15.3595 5.64828L15.2928 5.15274L15.2928 5.15274L15.3595 5.64828ZM16.5979 4.82693L16.9145 5.21391V5.21391L16.5979 4.82693ZM17.2853 4.35498L17.4375 4.83127L17.2853 4.35498ZM17.9872 4.38999L18.186 3.93121V3.93121L17.9872 4.38999ZM18.6243 4.928L18.2707 5.28155V5.28155L18.6243 4.928ZM19.5178 5.82147L19.8713 5.46791V5.46791L19.5178 5.82147ZM20.0558 6.45855L20.5146 6.25976L20.5146 6.25976L20.0558 6.45855ZM20.0908 7.16044L20.5671 7.3126L20.5671 7.31259L20.0908 7.16044ZM19.6188 7.8479L19.2318 7.53128V7.53128L19.6188 7.8479ZM18.7975 9.08636L18.3019 9.0197V9.0197L18.7975 9.08636ZM19.182 10.0147L18.8787 10.4123L19.182 10.0147ZM20.6385 10.3097L20.6883 9.81214L20.6385 10.3097ZM21.4584 10.462L21.6876 10.0177L21.6876 10.0177L21.4584 10.462ZM21.9299 10.9831L22.3949 10.7992V10.7992L21.9299 10.9831ZM21.93 13.9084L21.465 13.7246L21.465 13.7246L21.93 13.9084ZM21.4583 14.4296L21.6875 14.874H21.6875L21.4583 14.4296ZM20.6386 14.5819L20.5889 14.0844L20.5726 14.086L20.5564 14.0887L20.6386 14.5819ZM20.6386 14.5819L20.6884 15.0795L20.7047 15.0778L20.7208 15.0751L20.6386 14.5819ZM19.1825 14.8767L18.8794 14.4791L19.1825 14.8767ZM18.7979 15.8054L18.3023 15.8722V15.8722L18.7979 15.8054ZM19.619 17.0434L19.232 17.36L19.619 17.0434ZM20.0908 17.7306L19.6145 17.8828L19.6145 17.8828L20.0908 17.7306ZM20.0558 18.4327L19.597 18.2339L19.597 18.2339L20.0558 18.4327ZM19.5179 19.0696L19.8715 19.4231L19.5179 19.0696ZM18.6243 19.9632L18.2708 19.6096V19.6096L18.6243 19.9632ZM17.9873 20.5012L18.1861 20.9599L18.1861 20.9599L17.9873 20.5012ZM17.2854 20.5362L17.1332 21.0125H17.1332L17.2854 20.5362ZM16.5979 20.0642L16.9146 19.6772L16.9103 19.6738L16.5979 20.0642ZM16.5979 20.0642L16.2813 20.4512L16.2856 20.4546L16.5979 20.0642ZM15.3595 19.2429L15.4262 18.7473H15.4262L15.3595 19.2429ZM14.4311 19.6274L14.8286 19.9307L14.8286 19.9307L14.4311 19.6274ZM14.1362 21.0841L13.6386 21.0344L14.1362 21.0841ZM13.9837 21.9043L13.5394 21.675L13.5394 21.675L13.9837 21.9043ZM13.4628 22.3757L13.2789 21.9108H13.2789L13.4628 22.3757ZM10.5373 22.3757L10.7211 21.9108H10.7211L10.5373 22.3757ZM10.0162 21.9042L10.4606 21.675L10.0162 21.9042ZM9.86385 21.0844L9.36634 21.1341L9.86385 21.0844ZM9.56892 19.6278L9.17139 19.9311L9.17139 19.9311L9.56892 19.6278ZM8.64057 19.2433L8.57392 18.7477H8.57392L8.64057 19.2433ZM7.40208 20.0647L7.08546 19.6777L7.07754 19.6842L7.06989 19.691L7.40208 20.0647ZM7.40206 20.0647L7.71868 20.4516L7.7266 20.4452L7.73424 20.4384L7.40206 20.0647ZM6.71458 20.5366L6.86673 21.0129H6.86673L6.71458 20.5366ZM6.01272 20.5016L5.81394 20.9604H5.81394L6.01272 20.5016ZM5.37561 19.9636L5.72916 19.61H5.72916L5.37561 19.9636ZM4.48217 19.0702L4.12861 19.4237H4.12861L4.48217 19.0702ZM3.94414 18.4331L4.40292 18.2343L3.94414 18.4331ZM3.90913 17.7312L4.38542 17.8833L3.90913 17.7312ZM4.3811 17.0437L4.76808 17.3603L4.3811 17.0437ZM5.20247 15.8052L5.69801 15.8719L5.20247 15.8052ZM4.81792 14.8769L5.12119 14.4793H5.12119L4.81792 14.8769ZM3.36143 14.5819L3.31168 15.0795H3.31168L3.36143 14.5819ZM2.54161 14.4296L2.77081 13.9852H2.77081L2.54161 14.4296ZM2.07005 13.9085L1.60507 14.0923H1.60507L2.07005 13.9085ZM2.07008 10.983L1.60513 10.7991L1.60513 10.7991L2.07008 10.983ZM2.54152 10.4621L2.31229 10.0177L2.31228 10.0177L2.54152 10.4621ZM3.36155 10.3096V9.80964H3.33661L3.3118 9.81213L3.36155 10.3096ZM3.36156 10.3096V10.8096H3.3865L3.41131 10.8072L3.36156 10.3096ZM4.81842 10.0146L4.5151 9.61712L4.51509 9.61712L4.81842 10.0146ZM5.20287 9.08646L5.69841 9.01988H5.69841L5.20287 9.08646ZM4.38128 7.84762L4.76826 7.531L4.38128 7.84762ZM3.90914 7.15985L4.38545 7.00777H4.38544L3.90914 7.15985ZM3.94413 6.45823L3.48532 6.25951L3.48532 6.25951L3.94413 6.45823ZM4.48233 5.82089L4.83589 6.17444L4.83589 6.17444L4.48233 5.82089ZM5.37565 4.92757L5.0221 4.57402H5.0221L5.37565 4.92757ZM6.01277 4.38953L5.81398 3.93074H5.81398L6.01277 4.38953ZM6.71463 4.35452L6.86677 3.87823L6.71463 4.35452ZM7.4022 4.82656L7.71882 4.43958V4.43958L7.4022 4.82656ZM8.64044 5.64787L8.70718 5.15234L8.64044 5.64787ZM9.56907 5.26322L9.17149 4.96002L9.56907 5.26322ZM9.86387 3.80711L10.3614 3.85686V3.85686L9.86387 3.80711ZM10.0162 2.9875L9.57179 2.75836L9.57179 2.75836L10.0162 2.9875ZM10.5374 2.51581L10.7212 2.98081L10.7212 2.98081L10.5374 2.51581ZM13.4627 2.51585L13.6465 2.05087L13.6465 2.05087L13.4627 2.51585ZM14.6337 3.75749C14.6126 3.54726 14.5947 3.36526 14.5695 3.2154C14.5435 3.06062 14.5051 2.90746 14.4281 2.75822L13.5394 3.21661C13.5497 3.23668 13.5658 3.2766 13.5833 3.38099C13.6017 3.4903 13.6163 3.63355 13.6386 3.85699L14.6337 3.75749ZM14.8286 4.96047C14.8173 4.94563 14.7806 4.88452 14.7421 4.67031C14.7044 4.46087 14.6755 4.17631 14.6337 3.75749L13.6386 3.85699C13.6788 4.25903 13.7116 4.59012 13.7579 4.84742C13.8033 5.09993 13.8731 5.35663 14.0335 5.56699L14.8286 4.96047ZM15.2928 5.15274C15.1148 5.17669 14.9375 5.10329 14.8286 4.96047L14.0335 5.56699C14.3604 5.99547 14.892 6.21567 15.4261 6.14382L15.2928 5.15274ZM16.2813 4.43995C15.9555 4.70649 15.7339 4.88732 15.5592 5.00876C15.3804 5.13297 15.3113 5.15025 15.2928 5.15274L15.4261 6.14382C15.6883 6.10854 15.9192 5.97635 16.1298 5.82992C16.3445 5.68073 16.6018 5.46976 16.9145 5.21391L16.2813 4.43995ZM17.1332 3.8787C16.9732 3.9298 16.8377 4.01092 16.7099 4.10199C16.5861 4.19016 16.4448 4.30617 16.2813 4.43995L16.9145 5.21391C17.0883 5.07171 17.1999 4.98074 17.2902 4.91642C17.3764 4.855 17.416 4.83814 17.4375 4.83127L17.1332 3.8787ZM18.186 3.93121C17.853 3.7869 17.4789 3.76824 17.1332 3.8787L17.4375 4.83127C17.5527 4.79445 17.6774 4.80067 17.7884 4.84877L18.186 3.93121ZM18.9778 4.57445C18.8285 4.42505 18.6993 4.29556 18.5849 4.19551C18.4668 4.09218 18.3401 3.99797 18.186 3.93121L17.7884 4.84877C17.8092 4.85775 17.8469 4.87847 17.9265 4.94816C18.01 5.02114 18.112 5.12277 18.2707 5.28155L18.9778 4.57445ZM19.8713 5.46791L18.9778 4.57445L18.2707 5.28155L19.1642 6.17502L19.8713 5.46791ZM20.5146 6.25976C20.4478 6.10568 20.3536 5.97894 20.2503 5.86082C20.1502 5.74645 20.0207 5.61731 19.8713 5.46791L19.1642 6.17502C19.323 6.33381 19.4246 6.43581 19.4976 6.51923C19.5673 6.5989 19.588 6.63662 19.597 6.65735L20.5146 6.25976ZM20.5671 7.31259C20.6775 6.96686 20.6589 6.5928 20.5146 6.25976L19.597 6.65734C19.6451 6.76835 19.6513 6.89304 19.6145 7.00829L20.5671 7.31259ZM20.0058 8.16452C20.1396 8.001 20.2556 7.85962 20.3438 7.73586C20.4348 7.60804 20.516 7.47256 20.5671 7.3126L19.6145 7.00829C19.6076 7.02981 19.5908 7.0694 19.5293 7.15561C19.465 7.24588 19.374 7.35748 19.2318 7.53128L20.0058 8.16452ZM19.293 9.15301C19.2955 9.13452 19.3128 9.06538 19.437 8.88664C19.5584 8.7119 19.7393 8.4903 20.0058 8.16452L19.2318 7.53128C18.976 7.844 18.765 8.10127 18.6158 8.31595C18.4694 8.52665 18.3372 8.75748 18.3019 9.0197L19.293 9.15301ZM19.4853 9.6172C19.3424 9.50824 19.2691 9.33105 19.293 9.15301L18.3019 9.0197C18.2301 9.5538 18.4503 10.0854 18.8787 10.4123L19.4853 9.6172ZM20.6883 9.81214C20.2694 9.77025 19.9849 9.74142 19.7754 9.70373C19.5612 9.66518 19.5001 9.62851 19.4853 9.6172L18.8787 10.4123C19.0891 10.5727 19.3458 10.6425 19.5983 10.6879C19.8556 10.7342 20.1867 10.767 20.5888 10.8072L20.6883 9.81214ZM21.6876 10.0177C21.5384 9.94069 21.3852 9.90225 21.2304 9.87626C21.0805 9.8511 20.8985 9.83316 20.6883 9.81214L20.5888 10.8072C20.8122 10.8295 20.9555 10.8441 21.0648 10.8625C21.1692 10.88 21.2091 10.8961 21.2292 10.9064L21.6876 10.0177ZM22.3949 10.7992C22.2615 10.4617 22.0102 10.184 21.6876 10.0177L21.2292 10.9064C21.3367 10.9619 21.4205 11.0544 21.465 11.1669L22.3949 10.7992ZM22.5 11.814C22.5 11.6028 22.5003 11.4199 22.4901 11.2682C22.4797 11.1116 22.4567 10.9554 22.3949 10.7992L21.465 11.1669C21.4733 11.1879 21.4853 11.2293 21.4924 11.3349C21.4997 11.4455 21.5 11.5895 21.5 11.814H22.5ZM22.5 13.0777V11.814H21.5V13.0777H22.5ZM22.395 14.0922C22.4567 13.9361 22.4797 13.7799 22.4901 13.6233C22.5003 13.4718 22.5 13.2889 22.5 13.0777H21.5C21.5 13.3022 21.4997 13.4461 21.4924 13.5567C21.4853 13.6623 21.4733 13.7036 21.465 13.7246L22.395 14.0922ZM21.6875 14.874C22.0101 14.7076 22.2615 14.4298 22.395 14.0922L21.465 13.7246C21.4205 13.8372 21.3367 13.9297 21.2292 13.9852L21.6875 14.874ZM20.6884 15.0795C20.8986 15.0584 21.0805 15.0405 21.2304 15.0153C21.3851 14.9894 21.5383 14.9509 21.6875 14.874L21.2292 13.9852C21.2091 13.9956 21.1692 14.0116 21.0648 14.0291C20.9555 14.0475 20.8123 14.0621 20.5889 14.0844L20.6884 15.0795ZM20.7208 15.0751L20.7208 15.0751L20.5564 14.0887L20.5564 14.0887L20.7208 15.0751ZM19.4857 15.2743C19.5006 15.263 19.5617 15.2263 19.7758 15.1878C19.9852 15.1501 20.2697 15.1213 20.6884 15.0795L20.5889 14.0844C20.1869 14.1246 19.856 14.1573 19.5987 14.2036C19.3463 14.249 19.0897 14.3187 18.8794 14.4791L19.4857 15.2743ZM19.2934 15.7387C19.2694 15.5606 19.3428 15.3833 19.4857 15.2743L18.8794 14.4791C18.4507 14.806 18.2304 15.3379 18.3023 15.8722L19.2934 15.7387ZM20.006 16.7268C19.7395 16.4011 19.5588 16.1796 19.4373 16.0049C19.3132 15.8263 19.2959 15.7571 19.2934 15.7387L18.3023 15.8722C18.3377 16.1343 18.4698 16.365 18.6162 16.5756C18.7653 16.7902 18.9762 17.0474 19.232 17.36L20.006 16.7268ZM20.5671 17.5784C20.5159 17.4185 20.4348 17.283 20.3438 17.1553C20.2557 17.0316 20.1397 16.8902 20.006 16.7268L19.232 17.36C19.3741 17.5337 19.4651 17.6453 19.5294 17.7355C19.5908 17.8217 19.6076 17.8613 19.6145 17.8828L20.5671 17.5784ZM20.5145 18.6316C20.6589 18.2984 20.6776 17.9242 20.5671 17.5784L19.6145 17.8828C19.6514 17.9981 19.6451 18.1228 19.597 18.2339L20.5145 18.6316ZM19.8715 19.4231C20.0208 19.2738 20.1503 19.1447 20.2503 19.0304C20.3536 18.9123 20.4478 18.7856 20.5145 18.6316L19.597 18.2339C19.588 18.2546 19.5673 18.2923 19.4976 18.3719C19.4247 18.4553 19.3231 18.5573 19.1644 18.716L19.8715 19.4231ZM18.9779 20.3167L19.8715 19.4231L19.1644 18.716L18.2708 19.6096L18.9779 20.3167ZM18.1861 20.9599C18.3401 20.8932 18.4669 20.799 18.585 20.6957C18.6994 20.5956 18.8285 20.4661 18.9779 20.3167L18.2708 19.6096C18.112 19.7684 18.01 19.87 17.9266 19.943C17.8469 20.0127 17.8092 20.0334 17.7885 20.0424L18.1861 20.9599ZM17.1332 21.0125C17.4789 21.1229 17.853 21.1043 18.1861 20.9599L17.7885 20.0424C17.6775 20.0905 17.5528 20.0967 17.4375 20.0599L17.1332 21.0125ZM16.2813 20.4512C16.4448 20.585 16.5862 20.701 16.7099 20.7892C16.8378 20.8802 16.9732 20.9614 17.1332 21.0125L17.4375 20.0599C17.416 20.053 17.3764 20.0362 17.2902 19.9747C17.1999 19.9104 17.0883 19.8194 16.9145 19.6772L16.2813 20.4512ZM16.2856 20.4546L16.2856 20.4547L16.9103 19.6738L16.9103 19.6738L16.2856 20.4546ZM15.2928 19.7384C15.3113 19.7409 15.3805 19.7582 15.5592 19.8824C15.7339 20.0038 15.9555 20.1847 16.2813 20.4512L16.9145 19.6772C16.6018 19.4214 16.3446 19.2104 16.1299 19.0612C15.9192 18.9148 15.6884 18.7826 15.4262 18.7473L15.2928 19.7384ZM14.8286 19.9307C14.9376 19.7879 15.1148 19.7145 15.2928 19.7384L15.4262 18.7473C14.892 18.6755 14.3604 18.8957 14.0336 19.3242L14.8286 19.9307ZM14.6337 21.1339C14.6756 20.715 14.7044 20.4304 14.7421 20.2209C14.7807 20.0066 14.8173 19.9455 14.8286 19.9307L14.0336 19.3242C13.8731 19.5345 13.8033 19.7913 13.7579 20.0438C13.7116 20.3011 13.6789 20.6323 13.6386 21.0344L14.6337 21.1339ZM14.4281 22.1335C14.5051 21.9843 14.5435 21.831 14.5695 21.6762C14.5947 21.5263 14.6127 21.3442 14.6337 21.1339L13.6386 21.0344C13.6163 21.2579 13.6017 21.4012 13.5833 21.5106C13.5658 21.615 13.5497 21.655 13.5394 21.675L14.4281 22.1335ZM13.6467 22.8407C13.9841 22.7072 14.2617 22.456 14.4281 22.1335L13.5394 21.675C13.4839 21.7825 13.3914 21.8663 13.2789 21.9108L13.6467 22.8407ZM12.6316 22.9458C12.843 22.9458 13.0259 22.9461 13.1776 22.9359C13.3342 22.9255 13.4905 22.9024 13.6467 22.8407L13.2789 21.9108C13.2579 21.9191 13.2166 21.9311 13.1109 21.9382C13.0003 21.9455 12.8563 21.9458 12.6316 21.9458V22.9458ZM11.3682 22.9458H12.6316V21.9458H11.3682V22.9458ZM10.3534 22.8407C10.5096 22.9025 10.6658 22.9255 10.8224 22.9359C10.9741 22.9461 11.157 22.9458 11.3682 22.9458V21.9458C11.1437 21.9458 10.9997 21.9455 10.8891 21.9382C10.7835 21.9311 10.7421 21.9191 10.7211 21.9108L10.3534 22.8407ZM9.57187 22.1334C9.73824 22.456 10.0159 22.7073 10.3534 22.8407L10.7211 21.9108C10.6086 21.8663 10.5161 21.7825 10.4606 21.675L9.57187 22.1334ZM9.36634 21.1341C9.38736 21.3443 9.4053 21.5263 9.43046 21.6762C9.45645 21.831 9.49489 21.9842 9.57187 22.1334L10.4606 21.675C10.4503 21.6549 10.4342 21.615 10.4167 21.5106C10.3983 21.4013 10.3837 21.258 10.3614 21.0346L9.36634 21.1341ZM9.17139 19.9311C9.18271 19.9459 9.21938 20.007 9.25793 20.2212C9.29562 20.4307 9.32445 20.7153 9.36634 21.1341L10.3614 21.0346C10.3212 20.6325 10.2884 20.3014 10.2421 20.0441C10.1967 19.7916 10.1269 19.5349 9.96644 19.3245L9.17139 19.9311ZM8.70722 19.7388C8.88525 19.7149 9.06244 19.7883 9.17139 19.9311L9.96644 19.3245C9.63958 18.8961 9.10801 18.6759 8.57392 18.7477L8.70722 19.7388ZM7.71869 20.4516C8.04448 20.1851 8.26609 20.0042 8.44084 19.8828C8.61958 19.7586 8.68872 19.7413 8.70722 19.7388L8.57392 18.7477C8.3117 18.783 8.08085 18.9152 7.87015 19.0616C7.65547 19.2108 7.39819 19.4218 7.08546 19.6777L7.71869 20.4516ZM7.73424 20.4384L7.73426 20.4384L7.06989 19.691L7.06988 19.691L7.73424 20.4384ZM6.86673 21.0129C7.0267 20.9618 7.16218 20.8807 7.29001 20.7896C7.41377 20.7015 7.55516 20.5854 7.71868 20.4516L7.08544 19.6777C6.91164 19.8199 6.80003 19.9109 6.70976 19.9752C6.62354 20.0366 6.58395 20.0535 6.56244 20.0603L6.86673 21.0129ZM5.81394 20.9604C6.14696 21.1047 6.521 21.1234 6.86673 21.0129L6.56244 20.0603C6.44719 20.0972 6.32251 20.0909 6.21151 20.0428L5.81394 20.9604ZM5.02205 20.3171C5.17146 20.4665 5.3006 20.5961 5.41497 20.6961C5.5331 20.7994 5.65985 20.8937 5.81394 20.9604L6.21151 20.0428C6.19078 20.0339 6.15306 20.0131 6.07339 19.9435C5.98996 19.8705 5.88796 19.7688 5.72916 19.61L5.02205 20.3171ZM4.12861 19.4237L5.02205 20.3171L5.72916 19.61L4.83572 18.7166L4.12861 19.4237ZM3.48535 18.6318C3.55212 18.7859 3.64632 18.9127 3.74966 19.0308C3.84971 19.1452 3.97922 19.2743 4.12861 19.4237L4.83572 18.7166C4.67693 18.5578 4.57529 18.4558 4.50232 18.3724C4.43262 18.2927 4.4119 18.255 4.40292 18.2343L3.48535 18.6318ZM3.43284 17.579C3.3224 17.9248 3.34106 18.2988 3.48535 18.6318L4.40292 18.2343C4.35482 18.1233 4.34861 17.9986 4.38542 17.8833L3.43284 17.579ZM3.99413 16.7271C3.86033 16.8906 3.74432 17.032 3.65614 17.1558C3.56507 17.2836 3.48395 17.4191 3.43284 17.579L4.38542 17.8833C4.39229 17.8618 4.40915 17.8222 4.47058 17.736C4.53489 17.6457 4.62588 17.5341 4.76808 17.3603L3.99413 16.7271ZM4.70694 15.7386C4.70445 15.7571 4.68716 15.8262 4.56295 16.005C4.4415 16.1797 4.26067 16.4013 3.99413 16.7271L4.76808 17.3603C5.02394 17.0476 5.23491 16.7903 5.38411 16.5756C5.53054 16.365 5.66274 16.1341 5.69801 15.8719L4.70694 15.7386ZM4.51466 15.2744C4.65749 15.3834 4.73088 15.5606 4.70694 15.7386L5.69801 15.8719C5.76986 15.3378 5.54966 14.8062 5.12119 14.4793L4.51466 15.2744ZM3.31168 15.0795C3.73051 15.1213 4.01507 15.1502 4.2245 15.1879C4.43871 15.2264 4.49983 15.2631 4.51466 15.2744L5.12119 14.4793C4.91083 14.3189 4.65413 14.2491 4.40161 14.2037C4.14432 14.1574 3.81322 14.1246 3.41118 14.0844L3.31168 15.0795ZM2.31242 14.8739C2.46166 14.9509 2.61482 14.9893 2.7696 15.0153C2.91945 15.0405 3.10145 15.0584 3.31168 15.0795L3.41118 14.0844C3.18774 14.0621 3.04449 14.0475 2.93519 14.0291C2.8308 14.0116 2.79088 13.9955 2.77081 13.9852L2.31242 14.8739ZM1.60507 14.0923C1.73852 14.4299 1.98984 14.7076 2.31242 14.8739L2.77081 13.9852C2.66328 13.9297 2.57951 13.8372 2.53502 13.7247L1.60507 14.0923ZM1.5 13.0776C1.5 13.2889 1.49974 13.4717 1.50987 13.6234C1.52033 13.7799 1.54333 13.9362 1.60507 14.0923L2.53502 13.7247C2.52672 13.7036 2.5147 13.6623 2.50764 13.5567C2.50026 13.4461 2.5 13.3021 2.5 13.0776H1.5ZM1.5 11.8141V13.0776H2.5V11.8141H1.5ZM1.60513 10.7991C1.54335 10.9553 1.52034 11.1116 1.50987 11.2682C1.49974 11.4199 1.5 11.6028 1.5 11.8141H2.5C2.5 11.5895 2.50026 11.4455 2.50765 11.3349C2.51471 11.2292 2.52673 11.1879 2.53504 11.1669L1.60513 10.7991ZM2.31228 10.0177C1.98981 10.1841 1.73857 10.4617 1.60513 10.7991L2.53504 11.1669C2.57952 11.0544 2.66327 10.9619 2.77076 10.9064L2.31228 10.0177ZM3.3118 9.81213C3.10152 9.83315 2.91947 9.8511 2.76957 9.87627C2.61476 9.90227 2.46156 9.94072 2.31229 10.0177L2.77076 10.9064C2.79084 10.8961 2.83076 10.88 2.93518 10.8625C3.04452 10.8441 3.1878 10.8295 3.4113 10.8072L3.3118 9.81213ZM3.36155 9.80964H3.36155V10.8096H3.36155V9.80964ZM3.36156 9.80964H3.36155V10.8096H3.36156V9.80964ZM4.51509 9.61712C4.50025 9.62845 4.43914 9.66513 4.22487 9.70369C4.01538 9.7414 3.73074 9.77023 3.31181 9.81213L3.41131 10.8072C3.81346 10.7669 4.14464 10.7342 4.402 10.6879C4.65458 10.6424 4.91135 10.5726 5.12174 10.4121L4.51509 9.61712ZM4.70732 9.15305C4.73124 9.33104 4.65786 9.50818 4.5151 9.61712L5.12174 10.4121C5.55004 10.0853 5.77016 9.55384 5.69841 9.01988L4.70732 9.15305ZM3.9943 8.16424C4.26093 8.49012 4.44182 8.71179 4.5633 8.8866C4.68756 9.06539 4.70484 9.13455 4.70732 9.15305L5.69841 9.01988C5.66317 8.75758 5.53094 8.52667 5.38448 8.31592C5.23524 8.10117 5.0242 7.84382 4.76826 7.531L3.9943 8.16424ZM3.43283 7.31194C3.48393 7.47197 3.56508 7.60751 3.65618 7.73539C3.74439 7.8592 3.86045 8.00064 3.9943 8.16424L4.76826 7.531C4.62599 7.35712 4.53497 7.24546 4.47063 7.15515C4.40918 7.0689 4.39232 7.02929 4.38545 7.00777L3.43283 7.31194ZM3.48532 6.25951C3.34112 6.59243 3.32247 6.96632 3.43283 7.31194L4.38544 7.00777C4.34866 6.89256 4.35488 6.76793 4.40294 6.65696L3.48532 6.25951ZM4.12878 5.46734C3.97933 5.61679 3.84977 5.74598 3.74969 5.86039C3.64632 5.97857 3.55209 6.10536 3.48532 6.25951L4.40294 6.65696C4.41192 6.63622 4.43264 6.59849 4.50236 6.51879C4.57536 6.43533 4.67704 6.33329 4.83589 6.17444L4.12878 5.46734ZM5.0221 4.57402L4.12878 5.46734L4.83589 6.17444L5.72921 5.28112L5.0221 4.57402ZM5.0221 4.57401L5.0221 4.57402L5.72921 5.28112L5.72921 5.28112L5.0221 4.57401ZM5.81398 3.93074C5.65989 3.99751 5.53315 4.09171 5.41502 4.19505C5.30065 4.2951 5.1715 4.42461 5.0221 4.57401L5.72921 5.28112C5.888 5.12233 5.99001 5.02069 6.07343 4.94771C6.15311 4.87801 6.19082 4.8573 6.21155 4.84831L5.81398 3.93074ZM6.86677 3.87823C6.52105 3.76779 6.147 3.78645 5.81398 3.93074L6.21155 4.84832C6.32256 4.80022 6.44724 4.794 6.56248 4.83081L6.86677 3.87823ZM7.71882 4.43958C7.55526 4.30577 7.41386 4.18974 7.29008 4.10155C7.16225 4.01047 7.02675 3.92934 6.86677 3.87823L6.56248 4.83081C6.58399 4.83768 6.62359 4.85454 6.70982 4.91598C6.80011 4.98031 6.91175 5.07132 7.08558 5.21354L7.71882 4.43958ZM8.70718 5.15234C8.6887 5.14985 8.61957 5.13256 8.44085 5.00835C8.26613 4.88691 8.04455 4.70609 7.71882 4.43958L7.08558 5.21354C7.39826 5.46937 7.6555 5.68031 7.87013 5.82949C8.08078 5.9759 8.31156 6.10809 8.57371 6.14339L8.70718 5.15234ZM9.17149 4.96002C9.06252 5.1029 8.88526 5.17632 8.70718 5.15234L8.57371 6.14339C9.10797 6.21534 9.63975 5.99507 9.96665 5.56642L9.17149 4.96002ZM9.36635 3.75735C9.32448 4.17606 9.29566 4.46054 9.25799 4.66993C9.21945 4.88408 9.1828 4.94518 9.17149 4.96002L9.96665 5.56642C10.127 5.3561 10.1968 5.09947 10.2422 4.84702C10.2885 4.58979 10.3212 4.25879 10.3614 3.85686L9.36635 3.75735ZM9.57179 2.75836C9.49485 2.90757 9.45643 3.06069 9.43046 3.21542C9.4053 3.36524 9.38737 3.54719 9.36635 3.75735L10.3614 3.85686C10.3837 3.63348 10.3983 3.49027 10.4167 3.38099C10.4342 3.27663 10.4502 3.23672 10.4606 3.21665L9.57179 2.75836ZM10.3536 2.05081C10.016 2.18427 9.73818 2.43566 9.57179 2.75836L10.4606 3.21665C10.5161 3.10909 10.6086 3.02529 10.7212 2.98081L10.3536 2.05081ZM11.3681 1.9458C11.1569 1.9458 10.974 1.94554 10.8225 1.95566C10.6659 1.96612 10.5097 1.98911 10.3536 2.05081L10.7212 2.98081C10.7422 2.9725 10.7835 2.96049 10.8891 2.95344C10.9997 2.94606 11.1436 2.9458 11.3681 2.9458V1.9458ZM12.6318 1.9458H11.3681V2.9458H12.6318V1.9458ZM13.6465 2.05087C13.4904 1.98913 13.3341 1.96613 13.1776 1.95567C13.0259 1.94554 12.8431 1.9458 12.6318 1.9458V2.9458C12.8563 2.9458 13.0003 2.94606 13.1109 2.95345C13.2165 2.9605 13.2578 2.97252 13.2789 2.98082L13.6465 2.05087ZM14.4281 2.75822C14.2618 2.43564 13.9841 2.18433 13.6465 2.05087L13.2789 2.98082C13.3914 3.02531 13.4839 3.10908 13.5394 3.21661L14.4281 2.75822ZM15.5 12.4458C15.5 14.3788 13.933 15.9458 12 15.9458V16.9458C14.4853 16.9458 16.5 14.9311 16.5 12.4458H15.5ZM12 8.9458C13.933 8.9458 15.5 10.5128 15.5 12.4458H16.5C16.5 9.96052 14.4853 7.9458 12 7.9458V8.9458ZM8.5 12.4458C8.5 10.5128 10.067 8.9458 12 8.9458V7.9458C9.51472 7.9458 7.5 9.96052 7.5 12.4458H8.5ZM12 15.9458C10.067 15.9458 8.5 14.3788 8.5 12.4458H7.5C7.5 14.9311 9.51472 16.9458 12 16.9458V15.9458Z" fill="white"/>
</svg>
