<svg width="17" height="16" viewBox="0 0 17 16" fill="none" xmlns="http://www.w3.org/2000/svg">
<path d="M16.1156 2.718C15.9281 2.49296 15.6933 2.31197 15.428 2.18788C15.1626 2.06379 14.8732 1.99964 14.5803 2H3.80163L3.77363 1.766C3.71633 1.27961 3.48256 0.831155 3.11663 0.505652C2.7507 0.180149 2.27805 0.000227862 1.7883 0H1.6403C1.46349 0 1.29392 0.0702379 1.16889 0.195262C1.04387 0.320286 0.973633 0.489856 0.973633 0.666667C0.973633 0.843478 1.04387 1.01305 1.16889 1.13807C1.29392 1.2631 1.46349 1.33333 1.6403 1.33333H1.7883C1.95159 1.33335 2.10919 1.3933 2.23121 1.50181C2.35324 1.61032 2.43119 1.75983 2.4503 1.922L3.36763 9.722C3.46287 10.5332 3.85262 11.2812 4.4629 11.824C5.07319 12.3668 5.86154 12.6667 6.6783 12.6667H13.6403C13.8171 12.6667 13.9867 12.5964 14.1117 12.4714C14.2367 12.3464 14.307 12.1768 14.307 12C14.307 11.8232 14.2367 11.6536 14.1117 11.5286C13.9867 11.4036 13.8171 11.3333 13.6403 11.3333H6.6783C6.26567 11.3322 5.8635 11.2034 5.52692 10.9647C5.19035 10.726 4.93584 10.389 4.7983 10H12.745C13.5265 10 14.2832 9.72549 14.8828 9.22429C15.4825 8.7231 15.887 8.02713 16.0256 7.258L16.549 4.35533C16.6012 4.06734 16.5895 3.77138 16.5146 3.48843C16.4397 3.20547 16.3035 2.94245 16.1156 2.718ZM15.2403 4.11867L14.7163 7.02133C14.6331 7.48333 14.3899 7.90133 14.0295 8.20213C13.6691 8.50294 13.2144 8.66738 12.745 8.66667H4.5863L3.95897 3.33333H14.5803C14.6782 3.33275 14.7751 3.35375 14.864 3.39484C14.9529 3.43593 15.0316 3.4961 15.0946 3.57107C15.1577 3.64605 15.2034 3.73398 15.2285 3.82862C15.2537 3.92327 15.2577 4.0223 15.2403 4.11867Z" fill="white"/>
<path d="M5.6403 16C6.37668 16 6.97363 15.403 6.97363 14.6667C6.97363 13.9303 6.37668 13.3333 5.6403 13.3333C4.90392 13.3333 4.30697 13.9303 4.30697 14.6667C4.30697 15.403 4.90392 16 5.6403 16Z" fill="white"/>
<path d="M12.307 16C13.0433 16 13.6403 15.403 13.6403 14.6667C13.6403 13.9303 13.0433 13.3333 12.307 13.3333C11.5706 13.3333 10.9736 13.9303 10.9736 14.6667C10.9736 15.403 11.5706 16 12.307 16Z" fill="white"/>
</svg>
