<svg width="24" height="25" viewBox="0 0 24 25" fill="none" xmlns="http://www.w3.org/2000/svg">
<path d="M2 12.4458L1.60957 12.1335L1.35969 12.4458L1.60957 12.7581L2 12.4458ZM11 12.9458C11.2761 12.9458 11.5 12.7219 11.5 12.4458C11.5 12.1697 11.2761 11.9458 11 11.9458V12.9458ZM5.60957 7.13345L1.60957 12.1335L2.39043 12.7581L6.39043 7.75815L5.60957 7.13345ZM1.60957 12.7581L5.60957 17.7581L6.39043 17.1335L2.39043 12.1335L1.60957 12.7581ZM2 12.9458H11V11.9458H2V12.9458Z" fill="white"/>
<path d="M10 8.57773V7.83431C10 6.21597 10 5.4068 10.474 4.84731C10.9479 4.28781 11.7461 4.15479 13.3424 3.88873L15.0136 3.6102C18.2567 3.06968 19.8782 2.79943 20.9391 3.69812C22 4.59682 22 6.24073 22 9.52856V15.363C22 18.6509 22 20.2948 20.9391 21.1935C19.8782 22.0922 18.2567 21.8219 15.0136 21.2814L13.3424 21.0029C11.7461 20.7368 10.9479 20.6038 10.474 20.0443C10 19.4848 10 18.6756 10 17.0573V16.5118" stroke="white"/>
</svg>
