<svg width="18" height="18" viewBox="0 0 18 18" fill="none" xmlns="http://www.w3.org/2000/svg">
<path d="M17 2C17 1.44772 16.5523 1 16 1H2C1.44772 1 1 1.44772 1 2V3.58579C1 3.851 1.10536 4.10536 1.29289 4.29289L5.7071 8.7071C5.89464 8.89464 5.99999 9.14899 5.99999 9.41421V16.3063C5.99999 16.6476 6.33434 16.8886 6.65811 16.7806L11.6581 15.114C11.8623 15.0459 12 14.8548 12 14.6396V9.41422C12 9.149 12.1054 8.89465 12.2929 8.70711L16.7071 4.29289C16.8946 4.10536 17 3.851 17 3.58579V2Z" stroke="white" stroke-width="1.5"/>
</svg>
