<svg width="19" height="19" viewBox="0 0 19 19" fill="none" xmlns="http://www.w3.org/2000/svg">
<path d="M15.1403 15.8334C14.8061 14.8293 14.0695 13.942 13.045 13.3092C12.0204 12.6763 10.7651 12.3333 9.47363 12.3333C8.1822 12.3333 6.92686 12.6763 5.9023 13.3092C4.87773 13.942 4.14121 14.8292 3.80697 15.8334M12.307 7.61111C12.307 9.17592 11.0384 10.4444 9.47363 10.4444C7.90883 10.4444 6.6403 9.17592 6.6403 7.61111C6.6403 6.0463 7.90883 4.77778 9.47363 4.77778C11.0384 4.77778 12.307 6.0463 12.307 7.61111ZM17.9736 9.5C17.9736 14.1944 14.1681 18 9.47363 18C4.77921 18 0.973633 14.1944 0.973633 9.5C0.973633 4.80558 4.77921 1 9.47363 1C14.1681 1 17.9736 4.80558 17.9736 9.5Z" stroke="white" stroke-width="1.5" stroke-linecap="round"/>
</svg>
